<svg version="1.1" xmlns="http://www.w3.org/2000/svg" style="display: block;" viewBox="0 0 2048 1365" width="1536" height="1024" preserveAspectRatio="none" xmlns:c2pa="http://c2pa.org/manifest"><metadata><c2pa:manifest>AAAMZ2p1bWIAAAAeanVtZGMycGEAEQAQgAAAqgA4m3EDYzJwYQAAAAxBanVtYgAAAEdqdW1kYzJtYQARABCAAACqADibcQN1cm46YzJwYTo3ODYwYjdiMS04ZDRlLTQ3OTctYTE5ZS1lMGU1YWU2OGNkNjkAAAAB4mp1bWIAAAApanVtZGMyYXMAEQAQgAAAqgA4m3EDYzJwYS5hc3NlcnRpb25zAAAAAO1qdW1iAAAAQWp1bWRjYm9yABEAEIAAAKoAOJtxE2MycGEuYWN0aW9ucy52MgAAAAAYYzJzaByP43rjI9LZEZwEF/uqTp8AAACkY2JvcqFnYWN0aW9uc4GjZmFjdGlvbmxjMnBhLmNyZWF0ZWRxZGlnaXRhbFNvdXJjZVR5cGV4Rmh0dHA6Ly9jdi5pcHRjLm9yZy9uZXdzY29kZXMvZGlnaXRhbHNvdXJjZXR5cGUvdHJhaW5lZEFsZ29yaXRobWljTWVkaWFrZGVzY3JpcHRpb252Q3JlYXRlZCBieSBSZWNyYWZ0IEFJLgAAAMRqdW1iAAAAQGp1bWRjYm9yABEAEIAAAKoAOJtxE2MycGEuaGFzaC5kYXRhAAAAABhjMnNopxMTeNMTl72j+IVAqlY36AAAAHxjYm9ypWpleGNsdXNpb25zgaJlc3RhcnQY22ZsZW5ndGgZEIxkbmFtZW5qdW1iZiBtYW5pZmVzdGNhbGdmc2hhMjU2ZGhhc2hYIHBOqAbAC39M98qaXeZHvDNpWmt9CPBHIx81vvtZQAqxY3BhZEkAAAAAAAAAAAAAAAI0anVtYgAAACdqdW1kYzJjbAARABCAAACqADibcQNjMnBhLmNsYWltLnYyAAAAAgVjYm9ypmppbnN0YW5jZUlEeCx4bXA6aWlkOmFhMWZmOTdiLWFhMDQtNDFmZC05ZmYyLTg5YjFhMjE2NmIxOHRjbGFpbV9nZW5lcmF0b3JfaW5mb6NkbmFtZWpyZWNyYWZ0LmFpZ3ZlcnNpb254KDgxY2U4MmUyYzVjM2NiZmJlOGM2ZmJlMTc5ZDVmOGQ5MWM0MDljZTF3b3JnLmNvbnRlbnRhdXRoLmMycGFfcnNmMC45MC43aXNpZ25hdHVyZXhNc2VsZiNqdW1iZj0vYzJwYS91cm46YzJwYTo3ODYwYjdiMS04ZDRlLTQ3OTctYTE5ZS1lMGU1YWU2OGNkNjkvYzJwYS5zaWduYXR1cmVyY3JlYXRlZF9hc3NlcnRpb25zgqJjdXJseCpzZWxmI2p1bWJmPWMycGEuYXNzZXJ0aW9ucy9jMnBhLmFjdGlvbnMudjJkaGFzaFgg+I9Mg9RvK27dXo2kmyHUCmig4d+up4sWUUUCzZrlqhCiY3VybHgpc2VsZiNqdW1iZj1jMnBhLmFzc2VydGlvbnMvYzJwYS5oYXNoLmRhdGFkaGFzaFggidqecHJ8xFpZ9KgC0xnSMhjQy/6ZhqrDvTfal0sQzRtoZGM6dGl0bGV4GlJlY3JhZnQgQUkgR2VuZXJhdGVkIEltYWdlY2FsZ2ZzaGEyNTYAAAfcanVtYgAAAChqdW1kYzJjcwARABCAAACqADibcQNjMnBhLnNpZ25hdHVyZQAAAAesY2JvctKEWQOwogEmGCGCWQHnMIIB4zCCAYmgAwIBAgIJALfeWmNDUW56MAoGCCqGSM49BAMCMEAxHzAdBgNVBAMMFlJlY3JhZnQgU3RhZ2luZyBEZXYgQ0ExEDAOBgNVBAoMB1JlY3JhZnQxCzAJBgNVBAYTAlVTMB4XDTI2MDYxMjE5NDM1MFoXDTI3MDYxMjE5NDM1MFowNzELMAkGA1UEBhMCVVMxEzARBgNVBAoTClJlY3JhZnQgQUkxEzARBgNVBAMTCnJlY3JhZnQuYWkwWTATBgcqhkjOPQIBBggqhkjOPQMBBwNCAARKaTVbACsg/DeG3LeOxYdID/VA6EFG73E6Oknb+KIiCFJygRUz4ueN2z/t2qYb6CIUvS8RvgOiiClfoqsYtw81o3UwczAMBgNVHRMBAf8EAjAAMA4GA1UdDwEB/wQEAwIGwDATBgNVHSUEDDAKBggrBgEFBQcDBDAdBgNVHQ4EFgQULzHpBen96SL1y4IPHa8MkMshXf0wHwYDVR0jBBgwFoAUAgsqOBrKqpdK//m/kxZo7ZR4ebcwCgYIKoZIzj0EAwIDSAAwRQIgU8hKW0aXvvk8SQgVFNkax69Ym9ae8GsT2RZTQw+B51ACIQC0D4BkEoRD4N0r2ZRkNy0HZaW3WICy/QZGN95ilF4yzFkBvTCCAbkwggFfoAMCAQICCQCc+Wg7T6ATbzAKBggqhkjOPQQDAjBAMR8wHQYDVQQDDBZSZWNyYWZ0IFN0YWdpbmcgRGV2IENBMRAwDgYDVQQKDAdSZWNyYWZ0MQswCQYDVQQGEwJVUzAeFw0yNjA2MTIxOTQwMTZaFw0yODA2MTExOTQwMTZaMEAxHzAdBgNVBAMMFlJlY3JhZnQgU3RhZ2luZyBEZXYgQ0ExEDAOBgNVBAoMB1JlY3JhZnQxCzAJBgNVBAYTAlVTMFkwEwYHKoZIzj0CAQYIKoZIzj0DAQcDQgAEQ9IQBlcVbKaKPYrQSfOhL/00s7xUDC7RinIuLO/I1k99y9yh6oWF9kPxaP+tx1v1PeOL3yrVquJ730H0ZGiDyqNCMEAwDwYDVR0TAQH/BAUwAwEB/zAOBgNVHQ8BAf8EBAMCAYYwHQYDVR0OBBYEFAILKjgayqqXSv/5v5MWaO2UeHm3MAoGCCqGSM49BAMCA0gAMEUCIFQwNImLlYDeQhjgF+ZiqTbgcuzSqmOJw3Q2lQ/hu83FAiEA9O8cLm/xfoVLqB4jtdbuHzi3WL+p2RN+DRGkwpYswVuhY3BhZFkDpAAAAAAAAAAAAAAAAAAAAAAAAAAAAAAAAAAAAAAAAAAAAAAAAAAAAAAAAAAAAAAAAAAAAAAAAAAAAAAAAAAAAAAAAAAAAAAAAAAAAAAAAAAAAAAAAAAAAAAAAAAAAAAAAAAAAAAAAAAAAAAAAAAAAAAAAAAAAAAAAAAAAAAAAAAAAAAAAAAAAAAAAAAAAAAAAAAAAAAAAAAAAAAAAAAAAAAAAAAAAAAAAAAAAAAAAAAAAAAAAAAAAAAAAAAAAAAAAAAAAAAAAAAAAAAAAAAAAAAAAAAAAAAAAAAAAAAAAAAAAAAAAAAAAAAAAAAAAAAAAAAAAAAAAAAAAAAAAAAAAAAAAAAAAAAAAAAAAAAAAAAAAAAAAAAAAAAAAAAAAAAAAAAAAAAAAAAAAAAAAAAAAAAAAAAAAAAAAAAAAAAAAAAAAAAAAAAAAAAAAAAAAAAAAAAAAAAAAAAAAAAAAAAAAAAAAAAAAAAAAAAAAAAAAAAAAAAAAAAAAAAAAAAAAAAAAAAAAAAAAAAAAAAAAAAAAAAAAAAAAAAAAAAAAAAAAAAAAAAAAAAAAAAAAAAAAAAAAAAAAAAAAAAAAAAAAAAAAAAAAAAAAAAAAAAAAAAAAAAAAAAAAAAAAAAAAAAAAAAAAAAAAAAAAAAAAAAAAAAAAAAAAAAAAAAAAAAAAAAAAAAAAAAAAAAAAAAAAAAAAAAAAAAAAAAAAAAAAAAAAAAAAAAAAAAAAAAAAAAAAAAAAAAAAAAAAAAAAAAAAAAAAAAAAAAAAAAAAAAAAAAAAAAAAAAAAAAAAAAAAAAAAAAAAAAAAAAAAAAAAAAAAAAAAAAAAAAAAAAAAAAAAAAAAAAAAAAAAAAAAAAAAAAAAAAAAAAAAAAAAAAAAAAAAAAAAAAAAAAAAAAAAAAAAAAAAAAAAAAAAAAAAAAAAAAAAAAAAAAAAAAAAAAAAAAAAAAAAAAAAAAAAAAAAAAAAAAAAAAAAAAAAAAAAAAAAAAAAAAAAAAAAAAAAAAAAAAAAAAAAAAAAAAAAAAAAAAAAAAAAAAAAAAAAAAAAAAAAAAAAAAAAAAAAAAAAAAAAAAAAAAAAAAAAAAAAAAAAAAAAAAAAAAAAAAAAAAAAAAAAAAAAAAAAAAAAAAAAAAAAAAAAAAAAAAAAAAAAAAAAAAAAAAAAAAAAAAAAAAAAAAAAAAAAAAAAAAAAAAAAAAAAAAAAAAAAAAAAAAAAAAAAAAAAAAAAAAAAAAAAAAA9lhAkp4u5PUDRFzABS0d7geVU4IZKaEfUbDqum2DSxbrlFvBm8SEVIhuk/uc8chcwOJHb4WSe1nEQLfslSLFAx0iGQ==</c2pa:manifest></metadata>
<defs>
	<linearGradient id="Gradient1" gradientUnits="userSpaceOnUse" x1="1147.59" y1="1160.81" x2="1161.55" y2="1187.93">
		<stop class="stop0" offset="0" stop-opacity="1" stop-color="rgb(242,192,158)"/>
		<stop class="stop1" offset="1" stop-opacity="1" stop-color="rgb(248,222,189)"/>
	</linearGradient>
</defs>
<path transform="translate(0,0)" fill="rgb(251,242,227)" d="M 0 0 L 2048 0 L 2048 1365 L 0 1365 L 0 0 z"/>
<path transform="translate(0,0)" fill="rgb(109,44,35)" d="M 718.832 96.8633 C 793.216 45.7262 900.411 66.7165 950.884 140.638 C 956.473 148.825 973.903 177.676 972.462 187.754 C 972.022 191.598 971.477 190.815 973.23 193.055 C 1000.7 205.998 1006.53 247.054 994.439 272.532 C 986.811 288.466 973.224 300.761 956.611 306.766 C 948.439 309.685 935.736 314.239 930.583 305.366 C 921.698 314.022 912.53 321.99 903.062 329.985 C 893.364 338.176 888.957 343.181 886.799 355.793 C 889.573 361.543 895.243 370.911 893.646 376.729 C 887.593 384.154 871.253 385.191 863.544 389.104 C 826.975 407.67 798.52 442.955 758.922 405.713 C 754.128 401.204 741.659 389.736 734.914 388.533 C 731.621 389.421 732.683 388.673 730.529 391.108 C 725.051 411.776 784.603 455.475 793.276 478.289 C 811.799 527.018 810.475 582.323 820.591 633.308 C 827.439 668.387 834.839 701.185 840.837 734.938 C 878.811 761.772 917.629 776.907 959.122 796.387 C 961.01 797.273 966.964 809.344 969.08 811.346 C 990.203 837.818 1007.84 858.396 1017.7 891.823 C 1010.53 899.702 1011.44 897.563 1014.06 907.484 C 1007.58 924.229 1013.53 942.479 994.304 951.568 C 982.549 957.126 979.762 954.931 969.259 956.151 C 961.276 957.078 948.035 975.018 937.872 962.462 C 937.142 959.166 937.398 958.499 937.832 955.064 C 932.399 943.347 929.32 945.533 933.213 934.951 C 933.912 933.055 934.659 931.176 935.453 929.317 C 932.498 927.585 930.694 926.893 928.836 924.03 C 928.76 921.885 928.675 920.156 928.451 918.022 C 908.286 908.602 878.205 888.672 858.058 888.392 C 856.132 891.196 853.879 895.506 850.796 896.078 C 830.184 899.9 826.509 898.338 806.915 893.09 C 806.541 895.178 806.909 895.3 807.655 897.492 C 804.584 903.073 780.02 906.007 771.205 909.434 C 755.953 906.57 737.803 903.556 722.859 900.086 C 723.232 915.652 726.069 935.98 727.668 952.08 L 739.455 1066.12 C 787.057 1056.83 858.374 1051.53 907.449 1048.65 C 881.106 1007.74 929.432 989.459 961.459 981.098 C 1030.63 963.043 1105.89 965.228 1176.02 976.558 C 1194.95 953.19 1248.97 929.342 1277.8 925.207 C 1285.53 930.156 1318.54 940.528 1330.5 945.498 C 1341.07 939.838 1352.79 934.896 1362.82 929.213 C 1359.27 926.433 1351.16 920.812 1351.44 915.903 C 1351.96 906.879 1363.38 896.511 1367.05 888.566 C 1394.18 829.881 1399.26 763.655 1415.66 701.637 C 1420.86 681.988 1425.39 662.319 1433.59 643.788 C 1439.98 629.355 1448.49 615.957 1458.84 604.04 C 1463.62 598.56 1483.81 581.716 1484.78 578.198 C 1475.45 569.703 1430.18 610.139 1409.78 589.31 C 1391.31 570.454 1375.68 547.244 1356.19 529.54 C 1346.07 520.791 1339.72 528.127 1333.85 509.151 C 1357.47 471.626 1343.82 470.901 1327.54 435.706 L 1324.85 441.928 C 1316.32 441.741 1312.23 436.651 1306.45 430.7 C 1302.29 429.365 1299.07 427.628 1295.09 425.943 C 1264.56 404.167 1284.18 341.438 1314.11 327.568 C 1318.18 325.68 1319.28 324.159 1324.09 324.305 C 1325.62 322.86 1326.29 318.112 1326.29 315.95 C 1329.17 305.314 1343.42 298.292 1352.52 292.818 C 1400.22 264.107 1510.05 226.843 1560.04 265.717 C 1564.78 267.683 1566.28 268.47 1570.6 271.243 L 1571.41 270.769 C 1573.74 275.546 1574.51 279.074 1579.24 280.909 L 1580.38 280.971 C 1589.98 280.525 1602.89 290.167 1609.47 296.49 C 1632.35 318.494 1641.45 346.737 1642.73 377.516 C 1644.14 411.639 1631.61 438.838 1628.04 472.029 C 1626.4 487.205 1633.88 491.401 1633.29 496.129 C 1630.63 498.462 1626.38 498.737 1622.73 499.296 C 1649.46 529.972 1651.34 521.021 1681.69 536.542 C 1736.55 564.598 1797.52 594.273 1836.85 642.823 C 1863.75 676.952 1875.16 723.181 1885.08 764.751 C 1911.69 876.255 1928.39 991.705 1930.81 1106.34 C 1931.88 1156.95 1926.74 1206.16 1917.74 1255.89 C 1922.89 1266.24 1937.08 1293.42 1934.79 1304.88 C 1932.97 1307.44 1932.08 1307.4 1928.73 1307.47 C 1924.17 1306.25 1891.55 1306.82 1884.22 1306.83 L 1780.27 1306.87 L 1314.62 1307.14 C 1310.27 1308.19 1312.02 1308.08 1306.98 1306.37 C 1259.73 1306.07 1212.33 1306.79 1165.15 1306.08 C 1160.76 1307.22 1155.7 1306.37 1151.1 1305.92 C 1144.85 1307.93 1100.07 1306.91 1090.67 1306.88 L 985.035 1306.82 L 414.035 1306.48 L 259.293 1306.77 C 237.068 1306.8 204.616 1305.55 183.687 1307.04 C 180.709 1308.29 182.133 1308.28 179.288 1307.38 L 178.41 1305.11 C 179.521 1297.34 189.113 1282.72 193.38 1275.67 C 189.733 1251.52 183.537 1223.36 178.649 1199.16 L 148.797 1054.56 C 146.893 1045.3 135.102 999.197 138.101 991.632 C 139.239 988.762 159.934 979.117 165.376 976.575 C 195.799 962.545 226.724 949.631 258.09 937.859 C 277.525 930.775 297.643 924.046 316.96 916.776 C 325.564 913.538 344.4 897.189 349.674 889.551 L 350.387 888.505 C 306.844 883.2 273.365 872.744 244.891 837.759 C 237.147 845.177 205.558 874.635 235.102 878.475 C 244.249 879.664 244.157 863.772 254.34 865.083 C 258.034 868.901 255.922 880.925 253.724 885.244 C 250.093 892.379 240.825 895.977 233.681 898.382 C 225.722 896.706 216.462 892.033 210.728 893.058 C 209.38 893.925 206.651 894.981 205.239 894.633 C 195.996 892.354 185.021 893.445 175.768 892.385 C 155.225 890.031 148.273 876.975 136.818 862.396 C 133.645 858.358 126.245 855.051 121.881 849.033 C 116.172 841.245 113.847 831.482 115.432 821.957 C 117.269 810.675 122.738 802.575 131.777 795.928 C 118.409 787.166 111.543 774.318 113.433 757.698 C 113.746 754.948 114.76 752.304 117.073 750.675 L 118.906 751.491 C 120.481 755.115 119.651 758.066 119.152 762.094 C 121.284 765.475 124.179 768.965 126.664 772.149 C 134.583 775.516 145.253 776.517 151.665 769.689 C 163.177 757.43 150.571 735.81 151.371 720.759 C 152.927 691.469 178.475 664.132 208.264 663.98 C 215.364 663.944 224.41 666.012 229.2 671.134 L 232.322 672.909 C 242.453 655.644 261.209 639.042 278.899 629.98 C 285.914 615.264 290.707 599.193 297.8 584.27 C 326.985 522.799 357.495 460.998 396.951 405.379 C 409.383 386.383 423.444 378.863 443.401 369.285 C 485.816 348.929 533.315 338.734 574.878 316.902 C 586.079 311.017 591.439 299.641 602.514 292.274 C 617.68 290.52 620.462 291.413 630.993 302.546 C 643.905 294.408 653.509 288.364 663.849 276.846 C 660.075 272.203 658.85 270.203 655.898 264.949 C 637.283 274.243 639.262 273.595 619.48 271.364 C 617.841 271.179 609.921 274.722 607.243 275.384 C 593.021 278.897 575.327 275.332 562.404 268.829 C 542.695 258.055 536.164 243.212 546.767 223.126 C 536.275 220.484 530.8 218.045 523.689 209.366 C 517.749 202.117 515.104 184.858 523.704 178.956 C 531.077 181.299 522.848 194.076 530.068 200.416 C 542 210.894 559.164 201.479 568.757 193.366 C 560.269 188.79 552.793 180.341 552.701 170.698 C 552.476 117.468 613.023 77.429 661.574 72.5584 C 678.497 70.8606 716.846 75.0101 718.832 96.8633 z"/>
<path transform="translate(0,0)" fill="rgb(150,106,66)" d="M 699.81 1079.32 C 749.658 1070.64 799.852 1064.09 850.257 1059.68 C 870.348 1057.96 893.358 1055.86 913.406 1055.7 C 942.424 1104.7 956.166 1140.2 1018.99 1155.84 C 1055.75 1164.99 1107.92 1166 1145.31 1159.91 C 1122.15 1172.63 1099.18 1185.69 1076.41 1199.09 C 1065.45 1205.44 1034.86 1221.38 1029.44 1230.49 C 1027.46 1241.97 1039.05 1266.23 1044.11 1277.34 C 1069.24 1293.13 1121.51 1297.71 1151.1 1305.92 C 1144.85 1307.93 1100.07 1306.91 1090.67 1306.88 L 985.035 1306.82 L 414.035 1306.48 L 259.293 1306.77 C 237.068 1306.8 204.616 1305.55 183.687 1307.04 C 204.708 1264 244.905 1228.08 285.493 1203.78 C 287.141 1207.97 291.492 1219.18 295.024 1222.01 C 323.34 1244.71 376.418 1249.34 410.951 1252.68 C 428.063 1254.57 447.549 1253.18 464.389 1256.08 C 505.829 1263.21 551.677 1287.33 587.948 1253.21 C 591.552 1254.76 595.205 1256.19 598.902 1257.5 C 659.166 1278.22 753.888 1274.35 812.515 1247.03 C 840.517 1233.98 873.754 1204.22 855.017 1170.27 C 836.639 1136.98 794.624 1127.86 760.955 1117.81 C 752.15 1104.36 724.877 1084.27 709.225 1081.61 C 705.389 1080.75 703.652 1081.96 699.81 1079.32 z"/>
<path transform="translate(0,0)" fill="rgb(150,106,66)" d="M 1265.74 1048.62 C 1299.68 1053.96 1330.33 1055.84 1364.38 1059.28 C 1395.55 1062.52 1426.64 1066.46 1457.64 1071.1 C 1477 1073.83 1499.69 1075.13 1517.57 1081.7 C 1503.76 1085.64 1491.08 1089.33 1493.35 1106 C 1497.36 1135.37 1501.8 1164.69 1506.03 1194.04 C 1509.15 1213.2 1510.21 1236.27 1514.15 1254.71 C 1535.79 1277.23 1594.05 1276.54 1615.5 1254.95 C 1622.96 1215.58 1629.49 1165.7 1633.93 1126.14 C 1651.18 1127.38 1676.7 1129.01 1693.48 1128.56 C 1727.25 1127.64 1735.91 1130.89 1765.85 1144.87 C 1836 1177.63 1912.3 1225.77 1928.73 1307.47 C 1924.17 1306.25 1891.55 1306.82 1884.22 1306.83 L 1780.27 1306.87 L 1314.62 1307.14 C 1334.92 1293.77 1441.83 1226.34 1449.96 1214.46 C 1454.6 1207.67 1460.27 1184.12 1461.84 1175.48 C 1462.4 1172.35 1461.52 1169.42 1459.5 1166.99 C 1447.19 1152.21 1400.93 1144.82 1381.72 1141.46 C 1366.17 1125.59 1348.61 1122.6 1326.96 1121.8 C 1316.97 1121.43 1300.33 1124.4 1291.67 1123.11 C 1272.3 1120.21 1251.58 1112.21 1231.86 1111.44 C 1248.05 1090.12 1258.53 1074.53 1265.74 1048.62 z"/>
<path transform="translate(0,0)" fill="rgb(150,106,66)" d="M 708.677 288.183 C 699.697 289.082 695.84 289.965 687.134 286.771 C 676.286 282.791 666.762 272.661 662.363 262.151 C 651.861 237.061 658.246 193.61 668.237 168.984 C 683.797 130.629 709.997 104.392 747.946 88.3016 C 788.585 71.2086 834.381 71.1249 875.082 88.0691 C 922.666 107.472 947.739 140.893 966.85 186.593 C 969.294 188.325 968.793 187.744 972.462 187.754 C 972.022 191.598 971.477 190.815 973.23 193.055 C 1000.7 205.998 1006.53 247.054 994.439 272.532 C 986.811 288.466 973.224 300.761 956.611 306.766 C 948.439 309.685 935.736 314.239 930.583 305.366 C 955.279 281.455 975.123 257.811 962.287 219.741 C 961.753 218.157 961.043 218.272 959.607 217.835 C 957.369 220.085 958.006 218.783 957.515 221.819 C 940.374 276.273 856.877 291.961 807.833 276.441 C 799.426 273.766 791.206 270.537 783.226 266.776 C 777.02 263.797 766.24 257.433 760.151 256.083 C 760.042 253.769 760.39 254.828 758.876 252.875 C 761.786 249.652 761.279 251.093 761.453 247.435 C 747.454 213.949 710.229 221.752 703.782 255.03 C 701.255 268.077 704.502 273.739 709.445 285.132 L 708.677 288.183 z"/>
<path transform="translate(0,0)" fill="rgb(109,44,35)" d="M 973.23 193.055 C 1000.7 205.998 1006.53 247.054 994.439 272.532 C 986.811 288.466 973.224 300.761 956.611 306.766 C 948.439 309.685 935.736 314.239 930.583 305.366 C 932.515 305.249 934.444 305.106 936.372 304.937 C 953.691 303.473 969.705 295.143 980.846 281.802 C 999.719 259.037 997.877 225.431 978.328 204.522 C 975.3 201.283 971.721 199.333 971.3 195.052 L 973.23 193.055 z"/>
<path transform="translate(0,0)" fill="rgb(109,44,35)" d="M 731.456 159.466 C 736.284 161.459 739.209 165.94 742.994 169.45 C 761.197 186.33 786.856 189.73 810.619 185.784 C 833.168 182.039 855.957 165.644 879.055 169.074 C 880.328 169.263 880.472 170.514 880.935 171.59 C 876.496 176.583 865.334 174.149 860.108 176.072 C 839.909 183.502 824.663 190.291 803.264 193.637 C 783.405 194.656 767.568 193.821 749.934 182.258 C 745.766 179.525 738.887 171.416 735.36 170.963 C 735.82 183.438 760.804 199.673 772.164 201.943 C 775.73 202.656 784.726 206.505 787.002 208.571 L 785.264 209.908 C 765.243 214.038 720.967 184.799 731.456 159.466 z"/>
<path transform="translate(0,0)" fill="rgb(109,44,35)" d="M 899.124 235.254 L 901.145 236.524 L 901.554 238.549 L 899.894 240.485 C 865.811 253.77 826.739 261.541 790.85 251.184 L 787.671 248.966 L 787.496 247.186 C 790.118 245.651 797.246 247.081 800.228 247.734 C 824.327 253.004 849.449 249.198 872.916 242.627 C 880.95 240.378 889.613 237.17 898.058 235.464 L 899.124 235.254 z"/>
<path transform="translate(0,0)" fill="rgb(109,44,35)" d="M 666.83 189.235 C 672.872 191.478 673.225 207.733 676.828 215.137 C 680.843 223.386 693.265 231.57 692.674 239.38 C 677.075 236.474 662.964 203.926 666.83 189.235 z"/>
<path transform="translate(0,0)" fill="rgb(126,122,118)" d="M 1326.29 315.95 C 1329.17 305.314 1343.42 298.292 1352.52 292.818 C 1400.22 264.107 1510.05 226.843 1560.04 265.717 C 1564.78 267.683 1566.28 268.47 1570.6 271.243 L 1571.41 270.769 C 1573.74 275.546 1574.51 279.074 1579.24 280.909 L 1580.38 280.971 C 1580.47 281.144 1580.55 281.321 1580.64 281.489 C 1583.53 286.673 1593.24 290.959 1598.1 294.722 C 1609.29 303.383 1617.89 314.758 1623.85 327.556 C 1655.92 396.386 1609.07 453.304 1625.57 491.081 L 1624.61 492.543 C 1604.12 495.697 1595.18 463.385 1587.6 461.196 C 1581.76 469.703 1595.92 485.593 1601.3 491.314 C 1600.9 493.048 1600.45 494.666 1600.23 496.432 L 1600.41 498.799 C 1596.39 502.054 1589.5 499.508 1585.73 496.727 L 1581.96 498.8 C 1581.11 495.333 1570.99 488.61 1568.43 484.656 C 1563.21 476.577 1565.56 465.934 1555.12 463.783 C 1554.76 461.86 1552.28 460.08 1550.68 458.635 C 1550.66 458.605 1548.46 444.591 1548.43 443.966 C 1546.66 413.07 1498.5 403.871 1493.21 436.085 L 1491.84 438.009 L 1491.27 440.853 C 1484.49 445.779 1467.62 436.123 1461.05 432.432 C 1459.96 433.82 1459.26 434.479 1458.56 436.086 C 1409.8 427 1381.55 415.734 1351.67 372.321 C 1345.21 362.93 1336.77 346.18 1330.7 338.563 C 1327.01 340.615 1325.44 347.251 1324.2 351.285 C 1315.64 379.328 1315.77 408.515 1327.54 435.706 L 1324.85 441.928 C 1316.32 441.741 1312.23 436.651 1306.45 430.7 C 1302.29 429.365 1299.07 427.628 1295.09 425.943 C 1264.56 404.167 1284.18 341.438 1314.11 327.568 C 1318.18 325.68 1319.28 324.159 1324.09 324.305 C 1325.62 322.86 1326.29 318.112 1326.29 315.95 z"/>
<path transform="translate(0,0)" fill="rgb(109,44,35)" d="M 1326.29 315.95 C 1329.17 305.314 1343.42 298.292 1352.52 292.818 C 1400.22 264.107 1510.05 226.843 1560.04 265.717 C 1558.67 266.705 1556.97 268.456 1555.09 267.604 C 1494.01 239.982 1420.25 266.63 1363.85 293.869 C 1354.7 298.291 1333.26 315.949 1326.29 315.95 z"/>
<path transform="translate(0,0)" fill="rgb(109,44,35)" d="M 1461.05 432.432 L 1460.18 431.734 C 1453.78 426.688 1444.89 421.589 1438.76 417.181 C 1424.55 406.974 1384.93 368.109 1381.17 352.358 L 1381.94 350.918 C 1386.22 352.094 1387.91 353.619 1390.35 357.406 C 1409.07 386.403 1448.01 402.324 1481.65 402.816 C 1485.23 402.868 1495.02 401.664 1496.92 404.911 C 1481.21 417.746 1438.23 400.838 1421.36 393.067 C 1439.23 411.128 1459.42 424.508 1482.73 434.568 C 1485.38 435.71 1489.58 436.823 1491.84 438.009 L 1491.27 440.853 C 1484.49 445.779 1467.62 436.123 1461.05 432.432 z"/>
<path transform="translate(0,0)" fill="rgb(109,44,35)" d="M 1295.09 425.943 C 1264.56 404.167 1284.18 341.438 1314.11 327.568 C 1318.18 325.68 1319.28 324.159 1324.09 324.305 C 1323.47 329.346 1319.04 331.707 1314.94 334.903 C 1288.67 355.43 1277.05 391.842 1295.79 421.297 C 1297.1 423.356 1297.04 424.201 1295.09 425.943 z"/>
<path transform="translate(0,0)" fill="rgb(109,44,35)" d="M 1306.45 430.7 C 1300.5 420.567 1297.6 410.937 1296.72 399.146 C 1296.31 393.62 1296.43 377.787 1301.26 374.558 C 1304.07 378.749 1301.94 382.574 1301.99 387.895 C 1302.25 412.65 1308.38 424.911 1324.85 441.928 C 1316.32 441.741 1312.23 436.651 1306.45 430.7 z"/>
<path transform="translate(0,0)" fill="rgb(109,44,35)" d="M 1585.73 496.727 C 1580.05 489.867 1568.44 473.222 1573.84 463.946 C 1579.97 465.39 1582.4 480.585 1586.92 485.888 C 1591.58 491.362 1594.04 492.566 1600.23 496.432 L 1600.41 498.799 C 1596.39 502.054 1589.5 499.508 1585.73 496.727 z"/>
<path transform="translate(0,0)" fill="rgb(214,176,142)" d="M 1363.85 525.041 C 1321.9 509.716 1355.01 505.778 1353.47 475.524 C 1353.11 468.509 1346.31 457.235 1342.64 450.793 C 1322.8 415.981 1320.55 388.047 1330.75 349.266 C 1345.74 380.49 1359.64 397.131 1386.48 417.972 C 1377.85 417.601 1362.6 418.06 1356.41 424.762 C 1355.33 428.038 1355.25 426.491 1356.46 429.568 C 1359.61 430.218 1364.76 427.857 1367.88 426.697 C 1384.87 420.394 1394.71 426.53 1409.45 434.172 C 1412.18 435.585 1413.51 435.943 1416.09 435.025 L 1416.43 432.632 C 1426.96 431.686 1450.85 447.179 1458.56 436.086 C 1459.26 434.479 1459.96 433.82 1461.05 432.432 C 1467.62 436.123 1484.49 445.779 1491.27 440.853 L 1491.84 438.009 L 1493.21 436.085 C 1498.5 403.871 1546.66 413.07 1548.43 443.966 C 1548.46 444.591 1550.66 458.605 1550.68 458.635 C 1552.28 460.08 1554.76 461.86 1555.12 463.783 C 1565.56 465.934 1563.21 476.577 1568.43 484.656 C 1570.99 488.61 1581.11 495.333 1581.96 498.8 L 1585.73 496.727 C 1589.5 499.508 1596.39 502.054 1600.41 498.799 L 1600.23 496.432 C 1600.45 494.666 1600.9 493.048 1601.3 491.314 C 1606.06 494.968 1608.66 496.058 1614.17 498.366 C 1620.1 506.701 1649.71 537.762 1658.79 537.711 C 1659.61 536.197 1659.53 535.952 1660.95 535.064 L 1663.04 536.387 C 1659.88 553.651 1628.66 590.189 1615.65 603.583 C 1594.79 624.818 1566.51 648.431 1535.49 650.199 C 1513.07 651.477 1517.8 623.242 1518.77 609.249 C 1521.42 614.863 1523.5 622.96 1529.49 625.136 L 1530.43 623.599 C 1530.35 609.469 1498.46 570.102 1482.21 568.093 C 1477.02 567.451 1428.64 594.199 1421.05 588.75 C 1410.17 580.929 1371.01 536.249 1363.85 525.041 z"/>
<path transform="translate(0,0)" fill="rgb(109,44,35)" d="M 1493.21 436.085 C 1498.5 403.871 1546.66 413.07 1548.43 443.966 C 1548.46 444.591 1550.66 458.605 1550.68 458.635 C 1547.61 471.189 1534.74 495.759 1518.6 488.871 L 1518.15 486.441 C 1531.48 478.96 1541.42 474.294 1542.65 457.36 C 1544.18 436.208 1534.26 424.248 1514.02 421.973 C 1513.83 422.051 1513.65 422.129 1513.47 422.208 L 1512.56 422.619 C 1505.2 425.909 1504.2 427.18 1498.8 433.372 C 1496.07 436.501 1496.84 435.862 1493.21 436.085 z"/>
<path transform="translate(0,0)" fill="rgb(109,44,35)" d="M 1555.12 463.783 C 1565.56 465.934 1563.21 476.577 1568.43 484.656 C 1570.99 488.61 1581.11 495.333 1581.96 498.8 C 1567.97 506.264 1555.54 474.476 1555.12 463.783 z"/>
<path transform="translate(0,0)" fill="rgb(109,44,35)" d="M 1377.74 457.193 C 1390.44 460.369 1391.86 475.14 1389.52 485.823 C 1377.78 483.872 1374.33 466.987 1377.74 457.193 z"/>
<path transform="translate(0,0)" fill="rgb(109,44,35)" d="M 1419.81 528.339 C 1421.41 528.651 1422.13 529.084 1423.63 529.728 C 1427.88 538.556 1407.73 549.993 1400.99 552.871 L 1397.51 552.424 L 1396.57 550.564 C 1398.49 546.645 1409.33 541.293 1413.05 537.527 C 1416.12 534.42 1417.5 532.069 1419.81 528.339 z"/>
<path transform="translate(0,0)" fill="rgb(109,44,35)" d="M 1510.31 437.94 C 1523.36 438.301 1522.66 451.164 1520.31 460.724 C 1510.62 459.024 1515.68 449.507 1511.61 442.756 C 1510.57 441.026 1510.44 439.847 1510.31 437.94 z"/>
<path transform="translate(0,0)" fill="rgb(251,242,227)" d="M 957.515 221.819 C 959.442 224.878 959.509 225.318 959.68 228.942 L 960.014 228.754 C 959.117 230.736 958.437 232.324 959.27 234.518 C 965.442 269.805 930.709 297.045 907.339 317.838 C 895.584 328.297 878.819 339.737 881.37 358.055 C 882.003 362.344 885.788 369.868 887.697 374.025 C 878.733 379.271 867.549 380.714 859.219 384.876 C 835.358 396.799 821.188 410.93 794.527 417.765 C 788.146 415.497 783.037 413.612 777.002 410.423 C 762.577 402.802 751.749 388.538 738.004 380.465 C 656.364 419.387 699.448 453.122 680.151 517.099 C 663.189 484.138 659.358 455.456 647.439 421.035 C 636.267 388.774 619.015 356.057 612.506 322.289 C 630.232 312.726 654.957 296.551 668.258 281.832 C 673.258 286.427 676.695 289.894 683.005 292.804 C 691.195 296.581 704.939 299.503 708.677 288.183 L 709.445 285.132 C 704.502 273.739 701.255 268.077 703.782 255.03 C 710.229 221.752 747.454 213.949 761.453 247.435 C 761.279 251.093 761.786 249.652 758.876 252.875 C 760.39 254.828 760.042 253.769 760.151 256.083 C 766.24 257.433 777.02 263.797 783.226 266.776 C 791.206 270.537 799.426 273.766 807.833 276.441 C 856.877 291.961 940.374 276.273 957.515 221.819 z"/>
<path transform="translate(0,0)" fill="rgb(109,44,35)" d="M 957.515 221.819 C 959.442 224.878 959.509 225.318 959.68 228.942 L 960.014 228.754 C 959.117 230.736 958.437 232.324 959.27 234.518 C 951.024 254.912 926.348 269.39 906.766 277.737 C 901.643 279.897 896.453 281.895 891.203 283.728 C 897.16 286.631 903.287 288.448 905.445 294.397 L 904.542 296.759 C 900.588 298.201 887.201 288.716 882.048 286.35 C 839.402 290.675 801.284 288.362 764.284 263.427 C 761.502 261.552 760.251 259.437 760.151 256.083 C 766.24 257.433 777.02 263.797 783.226 266.776 C 791.206 270.537 799.426 273.766 807.833 276.441 C 856.877 291.961 940.374 276.273 957.515 221.819 z"/>
<path transform="translate(0,0)" fill="rgb(109,44,35)" d="M 709.445 285.132 C 704.502 273.739 701.255 268.077 703.782 255.03 C 710.229 221.752 747.454 213.949 761.453 247.435 C 761.279 251.093 761.786 249.652 758.876 252.875 C 753.428 245.622 745.875 233.162 736.356 232.322 C 713.346 230.292 701.87 262.387 714.116 279.197 C 717.661 284.063 727.487 289.445 728.806 294.414 L 728.429 296.613 C 721.946 297.295 713.341 290.006 709.445 285.132 z"/>
<path transform="translate(0,0)" fill="rgb(109,44,35)" d="M 851.383 306.857 C 858.659 306.603 863.731 306.269 868.057 313.214 L 867.508 314.88 C 864.648 316.547 863.738 316.383 860.421 316.379 L 858.293 319.303 C 854.67 324.043 853.661 325.791 847.81 324.871 C 840.991 318.471 846.126 311.849 851.383 306.857 z"/>
<path transform="translate(0,0)" fill="rgb(109,44,35)" d="M 809.602 352.216 C 810.697 352.458 811.977 352.741 813.444 353.065 C 816.572 360.279 816.363 367.488 821.275 374.264 C 826.943 382.082 837.833 378.135 837.64 388.216 C 819.242 387.465 806.436 370.105 809.602 352.216 z"/>
<path transform="translate(0,0)" fill="rgb(109,44,35)" d="M 729.208 250.758 C 739.741 251.279 739.607 264.964 738.333 272.762 L 734.978 271.926 C 734.207 271.185 729.6 252.742 729.208 250.758 z"/>
<path transform="translate(0,0)" fill="rgb(150,106,66)" d="M 126.664 772.149 C 134.583 775.516 145.253 776.517 151.665 769.689 C 163.177 757.43 150.571 735.81 151.371 720.759 C 152.927 691.469 178.475 664.132 208.264 663.98 C 215.364 663.944 224.41 666.012 229.2 671.134 L 232.322 672.909 C 200.127 723.234 212.664 781.984 240.904 831.35 C 228.342 844.32 219.663 850.978 214.861 868.57 C 221.419 887.244 237.429 891.649 250.148 874.291 C 250.663 876.469 248.967 880.823 247.758 882.712 C 232.078 907.191 185.64 868.862 205.509 847.469 C 210.617 841.969 224.586 833.701 225.969 831.021 C 219.095 824.641 204.342 837.43 199.736 842.726 C 188.59 855.54 194.507 873.861 205.56 884.555 C 207.127 886.08 208.418 886.789 207.768 888.557 L 209.485 889.093 L 210.94 887.921 L 211.052 889.287 L 210.201 888.597 C 211.365 891.347 211.119 889.922 210.728 893.058 C 209.38 893.925 206.651 894.981 205.239 894.633 C 195.996 892.354 185.021 893.445 175.768 892.385 C 155.225 890.031 148.273 876.975 136.818 862.396 C 133.645 858.358 126.245 855.051 121.881 849.033 C 116.172 841.245 113.847 831.482 115.432 821.957 C 117.269 810.675 122.738 802.575 131.777 795.928 C 118.409 787.166 111.543 774.318 113.433 757.698 C 113.746 754.948 114.76 752.304 117.073 750.675 L 118.906 751.491 C 120.481 755.115 119.651 758.066 119.152 762.094 C 121.284 765.475 124.179 768.965 126.664 772.149 z"/>
<path transform="translate(0,0)" fill="rgb(109,44,35)" d="M 126.664 772.149 C 134.583 775.516 145.253 776.517 151.665 769.689 C 163.177 757.43 150.571 735.81 151.371 720.759 C 152.927 691.469 178.475 664.132 208.264 663.98 C 215.364 663.944 224.41 666.012 229.2 671.134 C 228.185 671.677 226.951 672.337 225.496 673.115 C 218.276 672.189 212.529 670.709 205.074 671.113 C 182.784 672.297 168.161 688.146 160.539 707.977 C 151.564 731.326 176.578 761.861 152.009 777.937 C 142.417 784.212 130.827 780.512 121.341 776.83 C 129.511 787.115 132.648 790.714 145.93 793.098 C 159.347 795.507 169.805 785.829 173.77 786.15 C 176.189 789.106 174.639 791.107 172.498 793.917 C 161.13 800.457 151.796 800.152 139.011 798.862 C 122.802 810.659 115.083 827.817 128.35 846.038 C 130.105 848.448 131.709 850.913 134.596 851.871 C 138.462 847.386 134.082 831.244 143.442 826.136 L 146.338 825.974 C 150.161 830.353 144.081 833.975 143.517 838.378 C 139.535 869.48 159.139 881.874 184.853 886.975 C 173.338 876.406 164.336 864.28 163.306 848.77 C 162.021 828.242 184.553 816.192 189.382 798.882 C 191.396 791.663 186.553 769.952 182.466 763.822 C 167.847 741.89 184.356 692.51 211.598 688.126 L 213.721 688.692 C 213.966 692.981 205.709 696.804 202.401 699.798 C 190.729 710.361 183.535 724.679 183.995 740.606 C 184.694 760.494 197.893 775.452 196.731 796.213 C 195.283 822.07 161.669 829.184 172.836 859.01 C 175.4 865.859 180.948 873.668 186.355 878.591 C 192.277 884.068 199.765 887.553 207.768 888.557 L 209.485 889.093 L 210.94 887.921 L 211.052 889.287 L 210.201 888.597 C 211.365 891.347 211.119 889.922 210.728 893.058 C 209.38 893.925 206.651 894.981 205.239 894.633 C 195.996 892.354 185.021 893.445 175.768 892.385 C 155.225 890.031 148.273 876.975 136.818 862.396 C 133.645 858.358 126.245 855.051 121.881 849.033 C 116.172 841.245 113.847 831.482 115.432 821.957 C 117.269 810.675 122.738 802.575 131.777 795.928 C 118.409 787.166 111.543 774.318 113.433 757.698 C 113.746 754.948 114.76 752.304 117.073 750.675 L 118.906 751.491 C 120.481 755.115 119.651 758.066 119.152 762.094 C 121.284 765.475 124.179 768.965 126.664 772.149 z"/>
<path transform="translate(0,0)" fill="rgb(150,106,66)" d="M 554.249 209.317 C 560.239 207.396 580.334 196.642 580.188 189.847 C 575.59 185.877 573.091 190.685 568.411 187.114 C 552.646 175.087 560.549 148.919 569.378 135.335 C 587.219 108.551 616.314 88.4224 647.78 81.3683 C 681.519 73.8046 691.969 79.9807 718.832 96.8633 C 700.46 108.81 688.102 121.03 676.26 139.437 C 655.739 171.333 643.156 221.044 653.916 258.022 C 647.469 261.967 629.226 272.994 623.915 263.461 C 621.925 259.889 622.742 258.424 619.067 256.215 C 608.978 256.459 602.483 256.403 594.159 249.414 C 579.335 236.969 588.176 217.623 598.959 205.942 C 601.717 202.924 605.479 199.614 606.939 195.925 L 605.946 194.688 C 591.966 195.421 577.968 222.071 579.558 235.146 C 581.403 250.314 589.165 261.858 602.351 269.073 C 582.787 270.364 551.498 265.307 548.192 240.854 C 546.848 230.915 558.331 223.308 557.23 217.861 L 554.582 216.069 C 554.078 213.693 554.225 211.733 554.249 209.317 z"/>
<path transform="translate(0,0)" fill="rgb(109,44,35)" d="M 671.689 90.3527 C 675.988 89.9054 687.423 89.7353 689.864 93.4232 C 689.211 94.2944 688.352 95.6757 687.061 95.6807 C 646.432 95.8408 613.561 113.178 596.671 151.748 C 595.33 156.642 595.081 159.687 591.164 162.886 L 589.811 162.255 C 588.122 150.013 597.421 133.557 605.116 124.613 C 621.452 105.624 646.714 92.5535 671.689 90.3527 z"/>
<path transform="translate(0,0)" fill="rgb(150,106,66)" d="M 1039.01 1246.83 C 1067.74 1257.78 1103.82 1263.24 1133.9 1270.21 C 1170.23 1278.63 1207.28 1288.07 1244.28 1292.71 C 1280.5 1297.26 1298.42 1284.1 1327.31 1266.14 C 1345.63 1254.77 1363.87 1243.28 1382.04 1231.67 C 1398.38 1221.37 1437.73 1198.56 1451.88 1186.35 C 1438.92 1226.46 1443.44 1209.51 1414.29 1232.38 C 1395.75 1246.91 1314.44 1293.87 1306.98 1306.37 C 1259.73 1306.07 1212.33 1306.79 1165.15 1306.08 C 1164.33 1304.13 1164.05 1301.93 1161.91 1301.25 C 1130.5 1291.18 1079.86 1288.98 1051.62 1273.71 C 1045.37 1263.73 1043.83 1257.24 1039.01 1246.83 z"/>
<path transform="translate(0,0)" fill="rgb(230,219,197)" d="M 661.26 1085.82 C 668.387 1083.99 692.908 1079.83 699.81 1079.32 C 703.652 1081.96 705.389 1080.75 709.225 1081.61 C 708.117 1081.94 707.572 1082.13 706.372 1082.11 C 690.255 1081.8 677.821 1086.71 661.26 1085.82 z"/>
<path transform="translate(0,0)" fill="rgb(230,219,197)" d="M 554.582 216.069 C 546.696 217.225 542.321 215.73 535.686 211.594 C 537.145 210.024 546.734 211.46 553.185 209.625 L 554.249 209.317 C 554.225 211.733 554.078 213.693 554.582 216.069 z"/>
<path transform="translate(0,0)" fill="rgb(230,219,197)" d="M 1669.59 538.592 C 1695.83 551.069 1772.71 591.902 1793.3 610.533 C 1778.29 610.873 1764.77 612.92 1750.86 618.909 C 1744.77 621.533 1731.08 625.2 1732.62 633.694 C 1733.35 633.778 1734.08 633.861 1734.8 633.944 C 1751.4 624.653 1773.53 616.056 1792.67 616.5 C 1805.4 616.795 1818.44 632.328 1826.39 641.338 C 1846.1 663.68 1858.37 691.456 1865.41 720.204 C 1871.37 751.206 1872.51 794.002 1874.28 826.158 C 1876.97 874.946 1879.25 924.683 1879.05 973.552 C 1878.99 989.253 1879.46 1006.58 1878.12 1022.15 L 1878.24 1024.31 C 1877.25 1034.67 1877.43 1044.72 1875.71 1055.11 C 1826.08 1044.44 1736.41 1025.71 1693.95 1001.9 C 1693.92 994.078 1693.93 986.252 1693.99 978.425 C 1737.57 999.244 1789.31 1008.06 1836.06 1019.72 C 1838.29 1020.28 1840.8 1020.35 1842.75 1019.02 L 1842.38 1016.95 C 1831.54 1013.31 1816.08 1010.94 1804.72 1007.99 C 1772.52 999.629 1722.84 989.312 1694.35 974 C 1691.57 955.449 1691.82 927.739 1690.6 908.192 C 1686.72 845.741 1676.46 781.957 1683.43 719.595 C 1684.01 714.458 1688.08 706.647 1685.73 701.689 C 1683.45 701.18 1684.26 701.273 1681.61 702.781 C 1663.9 727.544 1681.75 884.112 1684.3 921.503 C 1686.02 944.535 1686.64 967.636 1686.15 990.727 C 1670.81 990.473 1654.72 991.656 1639.33 992.062 C 1583.39 993.537 1528.81 990.31 1473.14 985.717 C 1472.81 974.119 1471.48 962.302 1470.69 950.707 C 1464.46 859.367 1446.41 767.931 1452.52 676.185 C 1452.63 674.628 1452.01 673.585 1451.22 672.354 C 1450.19 672.829 1449.62 673.212 1448.94 674.133 C 1433.74 694.654 1453.32 844.121 1456.66 877.391 C 1459.02 900.94 1460.1 924.655 1463.03 948.14 C 1432.42 945.993 1379.69 939.72 1358.04 915.381 C 1384.06 877.511 1393.14 840.799 1402.33 796.204 C 1409.64 760.758 1417.23 725.523 1425.65 690.446 C 1438.4 637.328 1452.68 616.876 1492.63 582.175 C 1499.84 587.599 1507.46 595.564 1513.65 602.096 C 1512.06 613.914 1508.34 633.941 1513.3 644.436 C 1522.65 664.237 1557.06 654.67 1571.07 647.229 C 1605.97 628.684 1657.57 575.257 1669.59 538.592 z"/>
<path transform="translate(0,0)" fill="rgb(128,54,46)" d="M 1878.24 1024.31 C 1873.54 1024.18 1869.22 1024.47 1865.63 1021.37 L 1866.25 1019.94 C 1871.13 1018.73 1873.41 1020.26 1878.12 1022.15 L 1878.24 1024.31 z"/>
<path transform="translate(0,0)" fill="rgb(109,44,35)" d="M 1717.59 639.593 C 1719.46 640.788 1719.46 640.958 1720.79 642.642 C 1720.21 647.866 1697.97 674.799 1695.75 682.452 C 1695.3 684.032 1691.67 690.024 1690.59 691.699 C 1678.14 687.056 1712.11 645.398 1717.59 639.593 z"/>
<path transform="translate(0,0)" fill="rgb(109,44,35)" d="M 1380.2 904.795 C 1383.94 904.818 1404.12 914.636 1411.14 916.637 C 1426.27 920.947 1436.91 923.3 1452.92 923.991 C 1455.95 924.122 1456.1 924.992 1457.47 926.948 C 1445.04 932.064 1384.91 917.987 1380.2 904.795 z"/>
<path transform="translate(0,0)" fill="rgb(214,176,142)" d="M 1272.22 933.168 C 1281.22 930.109 1389.48 977.235 1408.4 981.92 C 1480.55 999.786 1610.46 1003.16 1684.28 996.904 C 1686.99 998.382 1685.48 1005.07 1687.36 1006.28 C 1726.7 1031.56 1821.74 1049.98 1862.22 1059.57 C 1862.06 1072.36 1860.85 1099.97 1851.34 1109.44 C 1827.76 1132.94 1673.88 1120.05 1634.15 1118.91 C 1635.67 1112.6 1636.44 1107.34 1637.38 1100.96 C 1626.56 1075.86 1586.71 1076.46 1563.16 1075.53 C 1554.18 1075.17 1536.83 1079.01 1528.93 1076.89 C 1510.2 1071.85 1491.32 1065.4 1472.73 1059.65 C 1449.25 1053.37 1423.95 1045.43 1400.5 1038.54 C 1360.76 1060.31 1318.59 1033.25 1275.21 1030.79 C 1250.95 1029.42 1237.39 1034.57 1216.81 1034.52 C 1240.22 1011.09 1270.52 1019.65 1279.72 1010.73 L 1279.32 1009.39 C 1269.07 1004.39 1235.29 1013.05 1225.7 1019.67 C 1220.44 1023.3 1213.02 1026.93 1206.94 1029.04 C 1178.15 1002.63 1277.69 986.58 1281.09 982.244 L 1279.19 981.065 C 1259.56 980.234 1224.48 988.635 1207.54 999.925 C 1201.17 1004.17 1189.49 1015.54 1182.55 1017.61 L 1181.25 1016.58 C 1179.24 1008.03 1185.34 1001.52 1191.18 995.865 C 1210.83 976.835 1237.7 965.265 1264.42 960.554 C 1269.52 959.655 1274.76 959.776 1279.37 957.583 L 1279.76 955.57 C 1277.78 954.041 1277.5 953.882 1274.86 953.9 C 1235.35 954.174 1201.21 971.394 1175.93 1001.38 C 1174.49 1003.09 1172.48 1003.24 1170.44 1002.94 L 1169.14 1001.04 C 1176.82 968.235 1242.39 939.93 1272.22 933.168 z"/>
<path transform="translate(0,0)" fill="rgb(251,242,227)" d="M 556.761 333.126 C 557.563 334.37 560.98 361.041 561.767 365.557 C 569.443 406.911 584.287 444.083 587.894 486.182 C 589.738 507.687 591.693 529.308 593.511 550.854 C 615.971 561.987 715.386 579.884 732.013 562.711 C 733.951 544.078 730.437 520.585 730.457 501.634 C 730.468 491.535 733.133 480.543 733.401 470.491 C 733.845 453.811 732.598 434.966 731.091 418.309 C 746.344 470.151 755.314 525.957 761.848 579.389 C 764.764 603.236 771.379 630.941 769.58 655.184 C 768.532 669.319 759.73 686.029 753.484 698.697 C 738.442 731.1 715.832 763.023 708.88 797.828 C 696.084 795.861 684.277 793.948 671.783 790.383 C 662.164 787.638 655.366 783.127 646.517 779.761 L 551.632 743.489 C 540.741 739.26 520.567 730.867 509.785 728.01 C 513.183 724.003 516.472 719.905 519.648 715.72 C 535.136 695.336 541.701 677.927 549.627 654.036 C 575.099 577.262 559.264 494.125 546.485 415.961 C 542.548 391.14 538.949 366.267 535.69 341.348 C 541.964 339.212 550.376 335.587 556.761 333.126 z"/>
<path transform="translate(0,0)" fill="rgb(227,145,128)" d="M 288.9 624.148 C 292.504 614.718 296.269 605.35 300.192 596.048 C 317.154 555.375 389.231 410.688 421.131 388.746 C 451.071 368.151 496.381 356.611 530.328 342.632 C 540.319 456.585 584.91 579.252 528.601 688.67 C 520.608 704.203 509.727 715.346 499.961 729.407 L 495.447 703.8 C 496.141 702.66 496.78 701.486 497.362 700.284 C 504.195 686.037 498.36 664.176 493.164 649.889 C 502.046 655.231 530.392 670.744 517.656 684.102 L 522.736 688.345 C 533.04 670.077 518.291 657.662 503.572 649.295 C 477.38 634.407 477.422 613.944 442.703 610.509 C 450.714 598.022 490.701 540.958 485.298 528.775 C 482.804 529.518 478.21 535.095 477.427 537.444 C 468.413 564.488 448.156 585.76 435.597 610.373 C 411.4 614.08 418.253 608.796 397.972 607.206 C 365.334 604.649 317.896 607.75 288.9 624.148 z"/>
<path transform="translate(0,0)" fill="rgb(109,44,35)" d="M 522.736 688.345 C 519.168 692.848 512.178 700.841 506.096 697.13 L 505.877 694.654 C 508.154 689.593 513.038 686.964 517.656 684.102 L 522.736 688.345 z"/>
<path transform="translate(0,0)" fill="rgb(109,44,35)" d="M 431.077 393.443 C 435.412 393.601 438.516 396.018 442.309 398.254 C 462.956 410.428 478.057 434.095 485.281 456.421 C 489.229 468.621 496.824 503.805 492.329 514.722 L 488.949 514.302 C 486.379 510.978 486.166 496.628 485.718 492.145 C 481.75 452.455 467.67 421.661 433.205 399.675 C 430.633 398.034 431.153 396.332 431.077 393.443 z"/>
<path transform="translate(0,0)" fill="rgb(150,106,66)" d="M 355.713 845.185 C 356.9 853.865 358.579 875.304 352.07 881.53 C 345.876 881.479 341.554 879.597 335.8 878.816 C 308.25 875.077 280.394 865.542 260.27 845.357 C 233.477 818.483 219.777 765.173 219.517 727.983 C 219.35 704.112 237.843 671.625 255.196 655.184 C 292.969 619.396 338.262 611.77 388.66 612.909 C 405.558 613.291 410.116 617.601 418.974 618.145 C 443.145 619.632 454.091 611.785 475.735 633.272 C 488.475 645.919 494.599 669.649 494.037 687.516 C 493.918 690.651 493.743 693.783 493.513 696.912 C 481.901 668.696 474.053 650.024 443.92 636.559 C 441.497 635.476 439.695 634.842 436.967 634.794 L 435.57 635.827 C 435.108 641.367 445.276 653.156 447.467 658.733 C 465.401 704.384 425.74 742.705 380.832 741.981 C 379.048 741.952 377.687 743.336 376.832 744.696 C 378.988 748.435 384.4 748.248 388.44 748.558 C 382.005 763.133 376.88 774.066 363.216 783.576 C 358.577 783.559 354.137 783.528 349.499 783.74 C 352.318 780.019 355.751 777.177 358.642 773.517 C 368.951 760.46 372.508 743.4 369.781 727.123 C 368.899 721.859 368.133 711.688 363.719 708.474 L 361.07 709.201 C 358.976 713.92 362.375 721.754 363.331 727.682 C 370.501 772.161 322.645 805.68 282.24 790.965 C 281.749 790.786 280.8 790.203 280.249 789.883 C 275.952 785.766 271.491 785.671 266.88 789.047 C 289.267 802.692 309.677 804.393 333.495 793.354 C 324.066 811.986 327.278 832.09 347.233 841.751 C 349.98 843.084 352.813 844.231 355.713 845.185 z"/>
<path transform="translate(0,0)" fill="rgb(109,44,35)" d="M 266.88 789.047 L 267.414 786.378 C 270.15 784.745 276.755 784.486 279.998 784.478 C 352.948 784.298 317.171 696.827 348.998 658.213 C 356.091 649.607 366.739 636.405 379.351 636.904 L 379.637 638.058 C 375.414 642.367 368.38 646.408 363.373 650.68 C 321.457 686.44 357.199 754.235 308.988 784.019 C 301.484 788.655 288.87 789.326 280.249 789.883 C 275.952 785.766 271.491 785.671 266.88 789.047 z"/>
<path transform="translate(0,0)" fill="rgb(251,242,227)" d="M 522.996 839.206 C 552.912 847.213 582.448 857.736 612.928 863.893 C 621.321 865.588 626.115 855.289 632.417 857.476 C 659.842 866.996 687.538 893.842 715.816 898.816 C 720.951 955.004 726.533 1011.15 732.561 1067.25 C 708.327 1070.78 684.16 1074.76 660.071 1079.17 L 647.928 1081.3 C 626.133 1073.63 610.616 1061.98 591.051 1051.44 C 598.15 1044.47 601.303 1040.56 606.021 1031.84 C 599.465 1021.62 590.447 1010.33 582.628 1000.3 C 559.982 971.249 539.345 937.296 511.158 913.412 C 504.125 907.453 461.216 892.562 459.642 887.599 C 471.225 882.304 491.997 880.68 504.504 873.549 C 517.42 866.186 519.133 852.892 522.996 839.206 z"/>
<path transform="translate(0,0)" fill="rgb(227,145,128)" d="M 739.257 426.68 C 744.071 429.484 752.867 438.829 756.691 443.178 C 774.39 463.308 790.865 477.133 795.384 504.83 C 806.059 570.269 811.23 636.444 827.481 700.962 C 830.507 712.975 831.774 725.627 835.131 737.693 L 835.485 738.944 C 859.214 759.227 916.461 784.761 946.046 797.192 C 921.904 804.273 906.91 821.359 897.317 844.527 C 893.814 852.986 892.248 862.849 896.127 871.423 C 880.85 875.64 780.08 803.914 739.093 803.03 C 733.107 789.875 729.966 780.494 726.036 766.625 C 740.426 733.916 764.082 700.273 774.594 666.073 C 781.29 644.289 771.079 602.297 768.414 578.834 C 765.07 549.393 761.111 518.251 755.193 489.296 C 750.904 468.177 745.586 447.28 739.257 426.68 z"/>
<path transform="translate(0,0)" fill="rgb(109,44,35)" d="M 821.2 733.154 C 823.043 733.771 822.558 733.809 823.846 735.966 C 823.484 737.428 823.373 738.666 821.619 739.292 C 793.179 749.44 780.736 757.881 766.199 784.642 C 762.82 783.026 763.712 784.051 762.371 781.025 C 762.618 777.645 764.097 773.756 765.98 770.96 C 781.093 748.531 796.362 739.674 821.2 733.154 z"/>
<path transform="translate(0,0)" fill="rgb(109,44,35)" d="M 815.772 721.374 C 821.402 720.613 821.602 720.782 825.589 723.67 L 825.742 725.347 C 823.755 726.72 800.121 731.851 792.242 735.318 C 789.259 736.49 788.898 736.872 785.975 736.102 L 785.478 733.969 C 789.546 725.628 807.564 722.349 815.772 721.374 z"/>
<path transform="translate(0,0)" fill="rgb(109,44,35)" d="M 783.608 493.62 C 784.749 494.496 785.333 495.307 786.278 496.39 C 786.42 501.986 772.209 531.481 768.739 537.452 L 767.551 537.519 L 766.114 536.101 C 764.771 526.756 778.111 501.884 783.608 493.62 z"/>
<path transform="translate(0,0)" fill="rgb(251,242,227)" d="M 449.967 647.36 C 452.401 648.264 455.685 650.52 457.667 652.188 C 489.512 678.984 490.946 718.808 495.326 755.043 C 497.468 757.97 500.46 762.089 503.307 764.112 C 508.291 767.653 519.754 770.054 522.211 776.288 C 531.354 799.484 516.275 839.904 509.513 861.523 C 497.726 873.466 463.863 879.277 446.615 883.483 C 447.58 908.403 470.846 924.709 432.375 935.395 C 405.089 942.973 380.679 935.053 356.76 921.938 C 350.307 917.911 344.524 914.903 337.805 911.394 C 363.078 891.974 363.135 876.321 362.874 846.098 C 369.697 845.127 381.414 842.068 385.528 836.65 L 384.38 835.404 C 380.388 834.537 370.679 838.188 364.71 839.106 C 341.933 842.61 325.292 813.04 340.333 795.904 C 346.077 789.36 357.367 790.078 366 790.189 C 381.606 779.415 389.016 764.577 396.263 747.845 C 422.961 741.671 432.444 732.734 451.023 713.58 C 455.061 709.418 467.011 706.366 467.724 701.207 L 465.907 700.206 C 461.398 700.008 459.741 700.801 455.575 702.215 C 459.794 678.247 459.26 670.003 449.967 647.36 z"/>
<path transform="translate(0,0)" fill="rgb(109,44,35)" d="M 504.841 815.77 C 508.745 819.099 509.155 825.431 507.41 829.555 C 496.969 854.227 464.088 830.811 470.571 807.11 C 476.216 805.944 487.148 809.822 492.845 809.317 C 498.97 808.774 504.962 800.854 508.586 796.391 L 510.44 798.25 C 511.775 804.644 508.141 809.089 503.134 812.417 C 503.72 814.082 503.662 814.635 504.841 815.77 z"/>
<path transform="translate(0,0)" fill="rgb(150,106,66)" d="M 476.426 813.279 C 487.526 815.215 491.887 814.64 503.134 812.417 C 503.72 814.082 503.662 814.635 504.841 815.77 C 502.823 820.732 502.956 826.148 499.428 830.144 C 492.381 838.123 484.565 830.375 479.13 824.651 L 476.426 813.279 z"/>
<path transform="translate(0,0)" fill="rgb(109,44,35)" d="M 467.086 741.219 C 478.786 742.824 479.524 765.515 474.738 772.876 C 461.543 769.464 462.064 751.163 467.086 741.219 z"/>
<path transform="translate(0,0)" fill="rgb(109,44,35)" d="M 445.451 727.282 C 447.142 727.69 447.752 728.023 449.329 728.689 C 450.458 732.771 444.045 739.385 442.783 744.826 C 440.704 753.79 441.572 761.826 440.851 770.812 C 427.111 764.739 439.71 736.055 445.451 727.282 z"/>
<path transform="translate(0,0)" fill="rgb(109,44,35)" d="M 357.426 805.125 C 363.692 804.776 370.979 805.969 373.285 812.776 C 372.024 815.014 372.673 814.282 369.418 815.207 C 361.097 810.445 356.044 813.714 352.512 809.748 C 353.974 806.606 353.973 807.367 357.426 805.125 z"/>
<path transform="translate(0,0)" fill="rgb(251,242,227)" d="M 677.498 1130.51 L 680.596 1130.34 C 721.323 1128.27 789.218 1135.65 822.204 1163.98 C 828.931 1169.91 833.722 1178.5 833.827 1187.57 C 834.148 1215.25 800.329 1229.06 778.342 1236.42 C 747.672 1246.69 714.22 1247.24 682.223 1247.86 C 680.318 1247.13 671.452 1247 669.015 1246.84 C 658.992 1246.18 614.982 1243.22 610.39 1236.72 L 612.874 1234.85 C 614.007 1234.9 615.142 1234.92 616.276 1234.9 C 633.894 1234.51 626.642 1208.64 608.952 1206.74 C 599.948 1205.77 593.446 1202.01 582.305 1204.3 C 568.236 1196.87 556.671 1193.2 541.47 1189.23 C 554.832 1144.33 638.69 1134.01 677.498 1130.51 z"/>
<path transform="translate(0,0)" fill="rgb(109,44,35)" d="M 711.685 1146.5 C 717.92 1145.83 729.028 1148.8 733.729 1153.27 C 737.955 1157.33 740.422 1162.88 740.6 1168.74 C 741.009 1184.62 722.898 1193.59 709.143 1193.61 C 705.165 1193.62 701.554 1192.88 697.404 1192.95 C 701.343 1195.19 710.175 1196.21 713.274 1198.94 C 738.783 1221.41 702.426 1236.43 684.276 1238.1 C 670.367 1237.05 642.528 1230.15 656.877 1209.15 C 664.858 1197.47 684.218 1194.93 697.593 1193.79 C 645.107 1180.19 668.775 1147.78 711.685 1146.5 z"/>
<path transform="translate(0,0)" fill="rgb(227,145,128)" d="M 708.646 1151.43 C 712.234 1151.06 719.006 1152.19 722.876 1152.69 C 724.928 1154.13 726.877 1155.7 728.707 1157.41 C 740.242 1168.19 733.966 1178.82 721.456 1183.7 C 713.54 1186.78 708.155 1187.12 699.75 1187.04 C 655.729 1180.46 671.873 1154.46 708.646 1151.43 z"/>
<path transform="translate(0,0)" fill="rgb(227,145,128)" d="M 687.153 1199.17 C 693.851 1198.51 701.163 1198.12 707.229 1201.54 C 710.58 1203.43 713.338 1206.45 714.164 1210.29 C 714.952 1213.97 713.849 1217.67 711.7 1220.68 C 706.902 1227.39 698.035 1230.03 690.251 1231.07 C 682.503 1231.51 674.687 1231.91 667.567 1228.27 C 664.201 1226.54 661.192 1223.93 660.135 1220.18 C 659.27 1217.1 660.017 1214.02 661.707 1211.37 C 666.917 1203.21 678.446 1201.25 687.153 1199.17 z"/>
<path transform="translate(0,0)" fill="rgb(109,44,35)" d="M 636.853 1156.57 C 670.093 1157.92 662.471 1184.51 639.298 1193.74 C 631.215 1196.96 624.943 1197.54 616.339 1198.25 C 604.057 1197.99 586.736 1190.11 595.138 1175.64 C 603.214 1161.73 622.399 1157.11 636.853 1156.57 z"/>
<path transform="translate(0,0)" fill="rgb(252,229,175)" d="M 629.169 1162.17 C 636.497 1161.22 648.079 1161.09 652.265 1168.29 C 655.173 1183.44 633.187 1189.88 622.225 1191.85 C 618.156 1192.33 612.613 1192.01 608.392 1191.91 C 604.86 1189.72 599.967 1186.44 598.772 1182.24 C 598.178 1180.17 598.461 1177.95 599.554 1176.09 C 604.236 1168.12 620.563 1164.29 629.169 1162.17 z"/>
<path transform="translate(0,0)" fill="rgb(109,44,35)" d="M 771.459 1185.45 C 774.092 1184.78 777.722 1185.32 780.381 1185.82 C 786.89 1187.05 790.762 1192.32 794.241 1197.42 C 793.422 1201.23 792.715 1205.12 790.424 1208.37 C 783.899 1217.6 773.117 1219.03 762.755 1220.66 C 755.601 1220.41 747.706 1219.89 741.913 1215.18 C 739.315 1213.07 737.511 1210.14 737.289 1206.75 C 737.022 1202.68 738.803 1198.8 741.491 1195.83 C 748.905 1187.61 761.033 1185.87 771.459 1185.45 z"/>
<path transform="translate(0,0)" fill="rgb(252,229,175)" d="M 767.005 1190.39 C 771.27 1189.67 777.058 1190.13 781.202 1191.41 C 784.345 1192.38 785.864 1193.91 787.285 1196.8 C 787.751 1200.12 787.272 1202.49 785.141 1205.16 C 779.419 1212.35 770.828 1213.49 762.32 1214.68 C 757.739 1215.41 750.822 1214.21 746.663 1212.14 C 744.531 1211.07 742.666 1209.25 742.128 1206.86 C 741.556 1204.33 742.414 1201.82 743.944 1199.79 C 749.167 1192.88 758.982 1191.33 767.005 1190.39 z"/>
<path transform="translate(0,0)" fill="rgb(251,242,227)" d="M 297.598 951.185 C 299.784 951.679 301.946 952.275 304.077 952.97 C 328.351 960.877 345.348 980.9 356.483 1003.02 L 356.688 1003.88 C 358.469 1011.1 362.202 1016.01 359.87 1022.64 L 357.933 1024.14 C 355.619 1024.8 355.553 1024.65 353.976 1026.59 C 353.859 1031.57 363.349 1056.31 365.28 1064.93 C 371.357 1092.08 377.224 1119.3 380.609 1146.95 C 354.113 1175.05 274.019 1174 244.5 1151.83 C 250.92 1097.86 257.318 1034.53 278.458 984.341 C 283.173 973.146 291.01 961.356 297.598 951.185 z"/>
<path transform="translate(0,0)" fill="rgb(230,219,197)" d="M 1879.76 791.729 C 1878.88 789.561 1878.17 771.457 1878.02 768.139 C 1879.3 773.076 1880.47 778.039 1881.53 783.026 C 1910.87 902.663 1928.1 1052.59 1921.27 1175.63 C 1919.8 1202.02 1915.63 1222.62 1912.35 1247.83 C 1905.8 1238.48 1896.95 1226.41 1888.98 1218.3 C 1854.26 1182.94 1794.13 1145.83 1747.57 1129.53 C 1772.21 1129.92 1836.2 1131.82 1855.93 1114.83 C 1866.68 1105.56 1868.86 1075.76 1869.16 1061.1 C 1873.16 1061.64 1877.36 1062.58 1881.16 1061.42 C 1888.37 1053.89 1886.26 936.57 1885.8 916.123 C 1884.95 887.736 1883.64 859.364 1881.87 831.019 C 1881.22 819.396 1879.72 802.993 1879.76 791.729 z"/>
<path transform="translate(0,0)" fill="rgb(216,203,175)" d="M 1879.76 791.729 C 1878.88 789.561 1878.17 771.457 1878.02 768.139 C 1879.3 773.076 1880.47 778.039 1881.53 783.026 C 1878.84 786.975 1880.76 787.794 1879.76 791.729 z"/>
<path transform="translate(0,0)" fill="rgb(230,219,197)" d="M 465.229 898.421 C 473.663 901.16 483.551 903.324 488.779 911.081 C 507.006 938.126 512.074 973.265 519.369 1004.45 C 527.319 1038.44 533.446 1072.46 539.707 1106.72 C 491.175 1118.33 429.96 1134.47 384.602 1155.82 L 383.451 1154.35 C 393.054 1146.11 367.111 1034.99 357.933 1024.14 L 359.87 1022.64 C 362.202 1016.01 358.469 1011.1 356.688 1003.88 L 356.483 1003.02 C 369.042 1018.68 386.996 1061.87 395.409 1081.79 C 390.831 1083.12 384.922 1084.38 381.38 1087.33 L 380.465 1089.11 C 386.023 1092.5 397.125 1089.22 401.439 1084.7 C 403.545 1076.94 373.417 1018.53 367.818 1008.23 C 350.295 976.002 336.351 958.656 301.484 945.104 C 308.033 935.266 312.852 929.49 322.441 922.057 C 332.973 929.284 346.315 938.681 355.546 947.498 C 386.529 977.094 411.243 1030.62 422.706 1071.65 C 450.906 1063.62 489.776 1051.65 513.943 1034.79 C 510.219 1003.64 497.133 952.84 483.29 924.474 C 478.918 915.516 471.169 906.433 465.229 898.421 z"/>
<path transform="translate(0,0)" fill="rgb(216,203,175)" d="M 923.215 1060.49 C 925.481 1061.22 933.173 1065.62 936.203 1067.09 C 945.45 1071.63 955.077 1075.35 964.973 1078.21 C 1049.53 1101.97 1175.53 1104.43 1254.06 1060.67 C 1246 1077.81 1242.36 1083.52 1231.26 1099.08 C 1214.63 1119.7 1194.62 1129.96 1171.41 1143.11 C 1135.27 1163.58 1055.75 1157.8 1016.5 1147.75 C 967.223 1135.13 946.963 1101.87 923.215 1060.49 z"/>
<path transform="translate(0,0)" fill="rgb(251,242,227)" d="M 347.526 1170.27 C 349.071 1169.95 350.607 1169.95 352.114 1170.47 C 371.03 1176.98 389.152 1185.64 408.296 1191.94 C 425.584 1197.63 444.443 1203.73 462.507 1206.26 C 483.652 1209.21 509.166 1192.51 534.084 1194.42 C 548.115 1195.5 600.141 1217.29 608.265 1226.87 C 601.189 1239.3 553.096 1204.31 541.835 1208.04 L 541.079 1209.56 C 541.176 1209.82 541.237 1210.1 541.37 1210.34 C 546.19 1219.21 597.102 1234.68 609.694 1238.11 C 597.992 1240.02 585.734 1240.86 574.03 1238.55 C 567.142 1237.2 539.794 1225.08 536.485 1225.66 L 535.65 1227.28 L 535.913 1225.97 L 536.226 1228.31 C 539.636 1231.89 543.266 1234.02 547.588 1236.37 C 555.145 1240.45 564.516 1243.78 572.994 1245.17 C 575.711 1245.62 581.207 1245.23 583.12 1247 C 566.652 1260.65 543.301 1240.9 528.389 1242.65 L 527.7 1244.04 C 528.262 1245.02 528.733 1245.78 529.505 1246.61 C 539.087 1256.95 561.686 1256.6 574.776 1257.1 C 570.388 1258.72 565.882 1260.32 561.341 1261.45 C 526.803 1270.03 496.143 1253.93 462.784 1249.14 C 447.462 1246.94 431.42 1247.13 415.95 1246.27 C 382.329 1244.39 334.621 1239.61 305.257 1221.82 C 290.725 1213.02 283.991 1187.05 280.207 1171.27 C 305.318 1175.59 322.447 1175.15 347.526 1170.27 z"/>
<path transform="translate(0,0)" fill="rgb(251,242,227)" d="M 1627.95 1111.12 C 1629.77 1115.83 1611.89 1235.93 1609.6 1251.13 C 1588.17 1268.45 1543.42 1268.61 1521.25 1252.56 L 1519.23 1238.03 C 1517.34 1226.99 1516.23 1213.54 1514.65 1202.13 C 1510.45 1171.78 1505.84 1141.49 1500.85 1111.26 C 1537.13 1128.78 1591.92 1129.52 1627.95 1111.12 z"/>
<path transform="translate(0,0)" fill="rgb(109,44,35)" d="M 1506.38 1121.95 C 1511.41 1122.23 1514.92 1125.43 1520.85 1126.85 C 1536.66 1130.52 1552.86 1132.29 1569.09 1132.13 C 1582.85 1131.95 1596.53 1129.89 1609.73 1126.01 C 1613.33 1124.93 1615.46 1123.52 1618.5 1124.42 L 1618.68 1126.81 C 1618.47 1126.93 1618.26 1127.04 1618.05 1127.15 C 1599.96 1139.37 1516.66 1141.58 1506.38 1121.95 z"/>
<path transform="translate(0,0)" fill="rgb(251,242,227)" d="M 650.622 791.621 C 671.566 797.288 688.94 801.634 710.385 805.477 C 721.066 807.391 753.079 811.149 760.87 814.055 C 789.932 824.893 824.214 844.071 848.014 864.136 C 858.991 873.39 865.72 873.797 876.938 884.945 C 851.9 880.942 841.217 872.615 819.16 860.964 C 805.13 853.552 787.786 848.074 773.825 839.463 C 772.144 838.425 771.017 839.195 769.556 839.989 L 769.406 842.03 C 772.456 846.227 785.481 851.942 790.493 855.663 C 801.282 863.674 829.821 880.679 838.15 889.28 L 837.525 890.606 C 833.869 892.063 829.606 891.704 825.624 891.674 C 807.44 888.402 790.235 875.606 775.672 864.808 C 771.274 861.547 768.027 859.352 762.304 859.721 L 761.614 860.982 C 764.543 866.479 794.369 885.474 800.803 889.582 C 798.381 892.896 795.294 896.099 792.516 899.16 C 788.913 898.818 785.122 898.368 781.715 897.17 C 774.54 894.647 750.204 877.209 743.835 878.419 L 743.499 880.019 C 748.609 888.235 766.8 894.57 773.204 901.755 L 772.193 902.339 C 754.036 899.042 735.764 896.325 717.7 892.53 C 692.677 887.273 672.675 870.267 650.547 858.551 C 640.319 853.136 630.425 850.168 619.433 846.896 C 624.212 825.345 635.516 807.387 650.622 791.621 z"/>
<path transform="translate(0,0)" fill="rgb(227,145,128)" d="M 724.189 393.579 C 722.533 416.867 727.259 444.902 727.056 470.176 L 724.092 469.652 C 722.67 458.735 716.776 421.307 710.538 414.29 L 709.419 414.397 C 704.907 420.694 711.416 437.731 713.08 444.948 C 716.761 460.914 718.159 476.39 719.56 492.63 C 719.746 494.784 722.025 496.149 723.57 497.521 C 725.91 505.565 725.952 550.009 725.794 560.059 C 679.474 565.885 644.43 560.411 599.751 547.336 C 596.639 521.549 597.01 500.82 592.272 473.243 C 594.851 476.376 598.27 481.45 601.892 482.519 C 610.333 478.126 613.694 437.928 640.189 419.642 C 653.261 449.142 656.008 487.836 672.613 517.156 C 675.353 521.994 676.45 532.55 683.39 530.391 C 689.811 517.794 692.126 485.682 696.598 470.901 C 698.057 466.078 706.415 434.552 704.615 431.189 L 703.093 431.894 C 697.028 439.86 695.318 446.773 692.478 456.166 C 693.64 423.401 694.919 413.182 724.189 393.579 z"/>
<path transform="translate(0,0)" fill="rgb(109,44,35)" d="M 664.831 531.749 C 668.535 530.153 672.818 530.725 675.973 533.237 C 679.129 535.75 680.645 539.795 679.919 543.763 C 679.193 547.73 676.343 550.977 672.502 552.209 C 666.945 553.992 660.967 551.099 658.918 545.634 C 656.869 540.169 659.472 534.059 664.831 531.749 z"/>
<path transform="translate(0,0)" fill="rgb(252,229,175)" d="M 667.453 537.577 C 669.544 536.669 671.981 537.526 673.042 539.543 C 674.103 541.56 673.43 544.055 671.497 545.263 C 670.113 546.129 668.359 546.148 666.957 545.311 C 665.554 544.474 664.738 542.922 664.842 541.292 C 664.947 539.662 665.955 538.228 667.453 537.577 z"/>
<path transform="translate(0,0)" fill="rgb(230,219,197)" d="M 453.211 892.571 C 453.784 892.92 454.52 893.325 454.949 893.835 C 479.686 923.312 491.627 959.583 499.804 996.572 C 502.618 1009.3 505.624 1020.78 506.654 1033.19 C 479.569 1046.89 457.02 1055.92 427.958 1063.65 C 419.405 1043.77 412.682 1024.28 402.947 1004.75 C 389.811 979.203 376.857 955.944 353.879 937.645 C 350.02 934.571 330.314 920.734 328.19 918.011 C 333.567 911.07 354.609 927.747 360.703 931.126 C 388.691 946.645 438.803 953.489 460.291 923.975 C 466.486 915.467 455.926 902.045 453.475 893.521 L 453.211 892.571 z"/>
<path transform="translate(0,0)" fill="rgb(109,44,35)" d="M 463.671 928.406 L 466.016 929.879 C 470.303 940.031 448.498 951.104 441.247 953.886 C 437.259 955.416 431.339 955.851 427.066 956.271 C 424.469 954.337 424.848 955.24 424.479 952.773 C 427.454 950.49 431.126 951.333 435.24 950.371 C 450.347 946.839 455.712 940.621 463.671 928.406 z"/>
<path transform="translate(0,0)" fill="rgb(150,106,66)" d="M 1385.08 1159.34 C 1395.07 1160.82 1433.08 1168.31 1438.45 1175.48 L 1437.89 1177.17 C 1432.12 1181.45 1425.51 1185.5 1419.31 1189.23 C 1373.62 1216.7 1329.33 1248.26 1281.79 1272.31 C 1272.71 1276.9 1251.89 1277.1 1241.72 1276.64 C 1226.9 1274.58 1201.8 1268.6 1186.36 1265.5 C 1210.5 1262.42 1255.04 1261.69 1238.44 1224.31 C 1250.71 1224.78 1265.5 1224.25 1277.51 1221.61 C 1301.81 1216.27 1317.2 1210.63 1311.13 1183.13 C 1332.46 1185.24 1378.09 1184.52 1385.08 1159.34 z"/>
<path transform="translate(0,0)" fill="rgb(150,106,66)" d="M 556.819 1110.31 C 570.466 1108.75 607.179 1114.28 622.359 1116.52 C 587.156 1125.64 545.557 1136.49 521.857 1168.93 C 518.499 1173.53 515.759 1187.67 512.664 1189.66 C 475.435 1197.44 479.885 1204.44 439.924 1194.66 C 411.762 1186.85 394.827 1180.02 367.89 1170.68 C 422.051 1144.63 497.352 1121.1 556.819 1110.31 z"/>
<path transform="translate(0,0)" fill="rgb(227,145,128)" d="M 500.134 730.674 C 548.489 747.971 596.348 769.579 646.007 786.373 C 631.617 801.071 623.326 815.911 615.427 834.569 C 613.26 840.957 610.878 849.229 610.439 855.914 L 610.369 857.098 C 606.323 857.547 533.427 835.178 525.368 832.699 C 532.672 814.441 538.976 766.631 513.532 761.245 C 498.969 758.162 500.746 743.099 500.134 730.674 z"/>
<path transform="translate(0,0)" fill="rgb(216,203,175)" d="M 950.042 1012.73 C 939.107 1017.39 937.919 1014.98 939.158 1026.45 C 936.078 1028.1 925.93 1035.78 926.179 1035.84 C 923.046 1035.12 917.635 1030.26 915.618 1027.47 C 912.957 1023.79 911.518 1020.27 912.268 1015.75 C 912.985 1011.44 917.096 1006.99 920.708 1004.69 C 934.21 996.057 951.661 991.225 966.893 987.283 C 1026.31 971.908 1107.52 971.078 1168.04 982.478 C 1166.8 987.787 1159.9 1006.21 1156.82 1009.59 C 1145.68 1000.25 1128.36 1006.79 1113.16 1004.64 L 1112.32 1009.73 C 1114.27 1011.76 1115.5 1010.61 1119.37 1011.32 C 1120.86 1014.24 1119.85 1017.42 1118.26 1020.36 C 1111.89 1018.49 1111.85 1015.73 1104.6 1013.83 C 1101.7 1012.56 1099.13 1012.32 1096.02 1011.8 C 1082.73 1007.09 1031.16 1008.7 1017.23 1010.46 C 992.476 996.745 976.76 991.063 959.817 1018.71 C 956.992 1016.8 953.034 1014.55 950.042 1012.73 z"/>
<path transform="translate(0,0)" fill="rgb(128,54,46)" d="M 1096.02 1011.8 C 1100.41 1006.48 1106.78 1005.38 1113.16 1004.64 L 1112.32 1009.73 C 1114.27 1011.76 1115.5 1010.61 1119.37 1011.32 C 1120.86 1014.24 1119.85 1017.42 1118.26 1020.36 C 1111.89 1018.49 1111.85 1015.73 1104.6 1013.83 C 1101.7 1012.56 1099.13 1012.32 1096.02 1011.8 z"/>
<path transform="translate(0,0)" fill="rgb(252,229,175)" d="M 1119.37 1011.32 C 1120.86 1014.24 1119.85 1017.42 1118.26 1020.36 C 1111.89 1018.49 1111.85 1015.73 1104.6 1013.83 C 1109.07 1012.7 1114.71 1012.01 1119.37 1011.32 z"/>
<path transform="translate(0,0)" fill="rgb(150,106,66)" d="M 291.62 945.081 L 292.393 945.749 C 288.011 954.191 281.787 961.642 276.592 971.991 C 262.295 1000.48 257.499 1026.68 250.752 1057.1 C 235.203 1062.67 220.57 1073.44 205.709 1079.92 L 202.665 1066.09 C 198.31 1044.06 192.269 1013.56 186.473 992.255 C 221.015 975.424 256.082 959.691 291.62 945.081 z"/>
<path transform="translate(0,0)" fill="rgb(227,145,128)" d="M 604.956 298.987 C 615.115 298.496 617.861 299.693 625.309 305.964 C 621.91 308.59 617.385 312.458 613.529 313.953 C 612.179 310.944 611.906 310.234 609.971 307.615 L 608.464 307.73 C 607.874 308.354 607.376 308.887 606.983 309.659 C 598.418 326.483 630.02 390.075 636.453 409.513 C 638.35 415.245 634.967 415.302 630.897 418.281 C 620.208 426.105 611.702 446.016 606.128 457.919 C 603.991 462.72 601.426 470.607 599.574 475.749 C 583.292 442.048 567.719 368.14 563.984 330.46 C 574.045 325.473 581.579 321.371 589.79 313.382 C 594.583 308.719 598.852 303.795 604.093 299.66 L 604.956 298.987 z"/>
<path transform="translate(0,0)" fill="rgb(150,106,66)" d="M 1231.77 1129.81 C 1244.89 1130.24 1258.44 1134 1271.64 1135.83 C 1266 1144.86 1266.94 1151.53 1271.92 1160.23 C 1248.05 1156.91 1171.67 1162.01 1195.06 1201.51 C 1175.94 1199.47 1120.62 1198.43 1121.25 1232.61 C 1121.41 1241.26 1133.6 1250.03 1140.59 1254.57 L 1117.26 1249.21 C 1095.36 1245.1 1071.74 1239.52 1049.78 1234.87 C 1055.67 1231.5 1061.81 1228.35 1067.82 1225.2 C 1123.89 1195.92 1177.41 1162.02 1231.77 1129.81 z"/>
<path transform="translate(0,0)" fill="rgb(150,106,66)" d="M 141.519 995.108 C 149.824 996.269 158.499 996.678 166.872 997.101 C 173.138 1019.72 179.696 1055.58 184.316 1079.15 L 204.854 1181.08 C 208.049 1197.07 214.23 1232.7 218.914 1247.13 C 216.349 1249.93 211.501 1254.32 208.619 1257.11 C 205.341 1261.25 202.021 1265.37 198.66 1269.45 C 193.018 1235.23 185.075 1199.98 178.789 1165.72 C 177.003 1155.99 173.722 1145.54 171.786 1135.81 L 153.792 1047.29 C 150.607 1031.92 146.737 1009.04 141.519 995.108 z"/>
<path transform="translate(0,0)" fill="rgb(230,219,197)" d="M 495.622 910.409 C 502.055 914.189 509.865 918.969 514.849 924.458 C 545.152 957.836 571.283 996.609 599.093 1032.13 C 588.883 1046.65 578.646 1056.94 563.04 1065.51 C 558.45 1068.03 552.439 1070.66 548.841 1073.93 C 546.173 1074.1 543.109 1074.16 540.554 1074.8 C 538.115 1058.61 533.013 1034.71 529.332 1018.62 C 521.332 983.675 515.228 940.41 495.622 910.409 z"/>
<path transform="translate(0,0)" fill="rgb(251,242,227)" d="M 950.289 803.532 C 951.405 803.563 952.466 803.791 953.51 804.191 C 960.08 806.713 989.794 847.998 994.639 856.208 C 997.963 861.842 1000.4 868.067 1002.91 874.099 C 998.814 888.191 999.741 894.704 988.651 907.585 C 981.473 915.922 951.993 945.751 942.553 946.543 C 922.99 934.934 969.732 914.633 974.717 908.173 C 978.83 902.843 977.99 892.311 980.142 885.228 C 982.936 874.781 988.386 870.547 993.581 861.98 C 994.226 860.916 993.46 860.339 992.643 858.846 C 982.068 855.937 974.2 882.339 972.042 890.239 L 970.706 890.582 C 967.729 888.037 966.809 884.107 965.384 880.271 L 956.406 876.552 L 954.066 868.175 C 952.768 863.402 952.223 859.858 947.919 857.39 C 938.823 862.331 955.59 879.324 952.413 889.839 C 948.067 892.432 936.387 889.892 930.838 889.096 C 921.961 871.713 917.099 850.568 911.571 832.106 C 920.42 818.595 933.123 804.609 950.289 803.532 z"/>
<path transform="translate(0,0)" fill="rgb(230,219,197)" d="M 666.202 1116.4 C 712.119 1113.18 823.611 1127.37 848.607 1172.38 C 853.369 1180.91 854.477 1190.99 851.677 1200.34 C 843.227 1228.9 801.104 1246.82 774.173 1253.54 C 713.297 1268.72 650.696 1266.45 590.768 1248.62 C 606.174 1239.49 624.505 1248.11 641.358 1250.72 C 681.398 1256.93 720.134 1253.84 759.894 1248.08 C 786.614 1241.82 827.07 1229.55 837.026 1201.06 C 848.962 1166.9 812.814 1145.13 784.981 1136.93 C 718.134 1117.25 637.123 1118.09 573.436 1148.24 C 554.928 1157.05 540.857 1167.81 534.631 1187.62 C 530.541 1188 525.197 1187.99 520.989 1188.1 C 523.76 1180.89 526.584 1173.19 531.818 1167.43 C 564.975 1130.97 621.121 1121.41 666.202 1116.4 z"/>
<path transform="translate(0,0)" fill="rgb(251,242,227)" d="M 586.347 1055.5 C 603.873 1067.56 636.137 1086.7 656.935 1090.79 C 690.431 1097.38 705.496 1074.45 736.608 1103.24 C 739.791 1106.18 750.259 1114 752.156 1117.53 C 748.609 1119.12 741.678 1117.31 738.217 1115.6 C 728.263 1110.69 690.908 1095.41 681.199 1101.74 C 683.569 1107.98 708.728 1108.75 716.359 1110.69 C 702.382 1111.42 687.541 1109.44 672.954 1109.84 C 663.067 1110.12 647.727 1112.8 638.953 1112.05 C 608.4 1109.43 577.124 1099.91 546.593 1104.7 C 544.455 1094.76 542.442 1084.79 540.554 1074.8 C 543.109 1074.16 546.173 1074.1 548.841 1073.93 C 562.118 1077.67 577.508 1063.98 586.347 1055.5 z"/>
<path transform="translate(0,0)" fill="rgb(252,229,175)" d="M 1246.53 1165.39 C 1264.03 1164.01 1283.63 1165.33 1298.7 1175.24 C 1305.02 1179.23 1309.31 1187.72 1303.15 1193.95 C 1292.77 1204.44 1272.41 1206.59 1258.5 1207.69 C 1242.05 1208.44 1202.25 1208.77 1197.16 1190.79 C 1192.15 1173.1 1236.53 1166.55 1246.53 1165.39 z"/>
<path transform="translate(0,0)" fill="rgb(251,242,227)" d="M 1545.71 1083.41 C 1562.96 1082.34 1581.89 1081.67 1598.8 1085.45 C 1606.67 1087.2 1630.36 1091.7 1626.04 1103.38 C 1617.99 1111.56 1594.65 1115.32 1583.18 1116.62 C 1564.93 1119.42 1513.84 1117.42 1502.26 1102.14 C 1498.87 1087.86 1535.6 1084.64 1545.71 1083.41 z"/>
<path transform="translate(0,0)" fill="rgb(109,44,35)" d="M 1558.22 1090.52 C 1573.42 1088.73 1606.53 1090.98 1618.2 1100.51 C 1614.94 1102.51 1601.01 1098.15 1596.66 1097.22 C 1586.94 1095.14 1578.24 1094.49 1568.35 1094.24 C 1553.45 1094.99 1540.09 1096.47 1525.66 1100.59 C 1520.14 1102.16 1515.64 1104.31 1510.45 1105.67 L 1509.05 1104.63 L 1509.44 1102.63 C 1518.31 1094.92 1546.27 1091.41 1558.22 1090.52 z"/>
<path transform="translate(0,0)" fill="rgb(252,229,175)" d="M 1165.51 1207.32 C 1184.51 1204.34 1209.49 1208.89 1225.54 1219.47 C 1229.14 1221.85 1233.16 1225.31 1233.83 1229.8 C 1234.21 1232.31 1233.29 1234.62 1231.68 1236.53 C 1224.6 1244.9 1209.36 1245.88 1199.25 1247.17 C 1180.27 1247.4 1161.21 1247.14 1143.18 1240.39 C 1137.6 1238.3 1130.9 1235.64 1128.31 1229.88 C 1127.89 1226.45 1128.57 1224.51 1130.69 1221.78 C 1138.34 1211.95 1153.91 1208.91 1165.51 1207.32 z"/>
<path transform="translate(0,0)" fill="rgb(251,242,227)" d="M 906.247 1024.82 C 910.31 1028.33 913.352 1037.39 921.632 1042.29 C 932.93 1048.99 942.846 1053.69 955.256 1058.13 C 1030.91 1085.16 1118.05 1084.96 1195.86 1067.24 C 1209.43 1064.06 1227.65 1055.59 1240.97 1050.45 C 1245.21 1048.81 1253 1040.72 1257.91 1039.86 C 1259.64 1042.59 1259.08 1043.78 1259.17 1047.38 C 1251.29 1054.75 1240.59 1059.95 1230.53 1064.27 C 1173.95 1088.54 1106.36 1090.61 1045.83 1086.39 C 1016.08 1084.31 904.391 1067.6 906.247 1024.82 z"/>
<path transform="translate(0,0)" fill="rgb(252,229,175)" d="M 1319.37 1128.45 C 1335.93 1127.25 1362.2 1130.69 1373.8 1143.54 C 1386.18 1157.26 1363.29 1162.97 1353.93 1164.3 C 1349.55 1164.92 1339.68 1166.98 1335.78 1166.35 C 1323.47 1168.73 1276.81 1163.45 1275.68 1147.26 C 1274.54 1130.88 1308.72 1129.33 1319.37 1128.45 z"/>
<path transform="translate(0,0)" fill="rgb(251,242,227)" d="M 1368.25 933.22 C 1398.86 948.872 1429.86 953.719 1463.8 955.548 C 1464.32 965.698 1464.83 975.101 1466.36 985.161 C 1460.74 983.897 1448.65 982.735 1442.5 981.99 C 1399.11 975.405 1379.44 966.274 1339.2 949.071 C 1349.6 943.798 1358.3 939.378 1368.25 933.22 z"/>
<path transform="translate(0,0)" fill="rgb(235,105,97)" d="M 1131.82 1024.69 C 1128.13 1021.81 1127.85 1020.71 1128.61 1016.45 C 1136.42 1005.67 1149.73 1014.12 1157.43 1019.69 C 1174.19 1031.55 1167.62 1014.65 1185.84 1028.58 C 1188.94 1025.23 1191.94 1021.43 1195.95 1019.39 L 1196.2 1020.23 L 1193.76 1024.59 C 1196.85 1029.87 1202.47 1034.53 1208.26 1036.74 L 1210.01 1038.99 L 1212.56 1039.18 C 1221.61 1044.36 1224.66 1040.26 1232.63 1043.02 C 1230.98 1048.29 1182.33 1064.56 1175.47 1062.46 L 1173.14 1061.93 L 1171.7 1063.19 L 1170.36 1064.9 C 1164.26 1063.77 1151.59 1052.99 1148.92 1046.96 C 1147.54 1043.85 1148.28 1036.79 1147.12 1036 C 1142.45 1032.8 1134.3 1030.08 1131.82 1024.69 z"/>
<path transform="translate(0,0)" fill="rgb(128,54,46)" d="M 1131.82 1024.69 C 1128.13 1021.81 1127.85 1020.71 1128.61 1016.45 C 1136.42 1005.67 1149.73 1014.12 1157.43 1019.69 L 1158.86 1023.06 C 1157.74 1024.99 1158.55 1024.43 1156.73 1025.17 C 1151.74 1027.92 1148.09 1032.68 1151.78 1038.19 C 1150.31 1041.53 1149.71 1042.36 1150.33 1045.89 C 1153.3 1051.26 1166.18 1062.61 1171.7 1063.19 L 1170.36 1064.9 C 1164.26 1063.77 1151.59 1052.99 1148.92 1046.96 C 1147.54 1043.85 1148.28 1036.79 1147.12 1036 C 1142.45 1032.8 1134.3 1030.08 1131.82 1024.69 z"/>
<path transform="translate(0,0)" fill="rgb(150,106,66)" d="M 1131.82 1024.69 C 1128.13 1021.81 1127.85 1020.71 1128.61 1016.45 C 1136.42 1005.67 1149.73 1014.12 1157.43 1019.69 C 1149.55 1021.29 1139.45 1019.5 1136.23 1021.29 L 1135.69 1023.04 C 1140.37 1027.15 1143.34 1023.67 1146.82 1027 C 1146.85 1029.76 1146.92 1029.92 1145.72 1032.33 C 1140.17 1030.58 1137.33 1027.03 1131.82 1024.69 z"/>
<path transform="translate(0,0)" fill="rgb(227,145,128)" d="M 1156.73 1025.17 C 1157.59 1029.47 1158.64 1035.11 1156.72 1039.05 C 1154.11 1039.51 1154.65 1039.23 1151.78 1038.19 C 1148.09 1032.68 1151.74 1027.92 1156.73 1025.17 z"/>
<path transform="translate(0,0)" fill="rgb(227,145,128)" d="M 1173.14 1061.93 C 1171.08 1058.88 1170.53 1058.26 1169.81 1054.69 C 1171.03 1051.52 1169.99 1052.64 1172.97 1051.15 C 1176.34 1052.32 1175.09 1051.28 1176.83 1054.4 C 1176.59 1057.9 1176.65 1059.13 1175.47 1062.46 L 1173.14 1061.93 z"/>
<path transform="translate(0,0)" fill="rgb(128,54,46)" d="M 1208.26 1036.74 L 1210.01 1038.99 L 1212.56 1039.18 C 1211.52 1039.71 1210.47 1040.22 1209.41 1040.73 C 1206.63 1042.07 1201.65 1044.7 1198.7 1043.66 C 1200.04 1040.93 1205.29 1038.47 1208.26 1036.74 z"/>
<path transform="translate(0,0)" fill="rgb(150,106,66)" d="M 179.424 994.511 C 182.387 997.613 190.56 1040.4 192.206 1048.08 L 220.664 1178.56 C 223.14 1189.99 225.677 1201.41 228.277 1212.82 C 229.569 1218.27 232.37 1227.86 232.992 1232.97 C 231.873 1236.31 229.796 1237.17 226.788 1239.21 C 225.685 1239.8 225.612 1239.59 224.179 1239.65 C 222.535 1237.71 222.227 1235.81 221.769 1233.32 C 209.163 1164.68 193.819 1096.44 180.246 1027.96 C 178.351 1018.4 175.956 1009.24 174.629 999.565 C 175.731 996.73 176.784 996.589 179.424 994.511 z"/>
<path transform="translate(0,0)" fill="rgb(150,106,66)" d="M 242.007 1105.91 C 244.248 1106.51 243.244 1108.44 243.054 1110.1 C 238.291 1151.62 226.017 1162.29 276.076 1170.32 C 264.71 1176.02 256.39 1180.28 245.182 1186.72 C 239.492 1189.81 236.48 1191.5 231.319 1195.32 C 226.692 1174.44 219.867 1137.87 214.007 1118.54 C 223.363 1114.38 232.696 1110.17 242.007 1105.91 z"/>
<path transform="translate(0,0)" fill="rgb(251,242,227)" d="M 1042.24 1238.33 L 1043.09 1238.72 C 1051.06 1242.32 1073.97 1246.63 1083.68 1248.66 L 1151.64 1262.93 C 1178.66 1268.82 1205.18 1276.16 1232.45 1281.4 C 1275.04 1289.59 1295.42 1274.39 1329.19 1253.56 L 1389.12 1216.29 C 1406.38 1205.42 1424.01 1195 1440.84 1183.5 C 1445.07 1180.6 1446.24 1178.2 1445.97 1173.46 C 1438.07 1159.06 1389.18 1158.08 1384.51 1150.32 L 1385.15 1149.34 C 1396.75 1149.1 1447.6 1162.9 1453.72 1172.63 C 1452.52 1183.26 1397.81 1214.58 1386.63 1221.6 L 1334.62 1254.18 C 1317.85 1264.66 1298.47 1277.54 1279.93 1283.9 C 1271.17 1286.9 1247.66 1287.51 1238.47 1285.89 C 1211.73 1281.17 1183.83 1274.22 1157.24 1268.3 C 1123.1 1260.7 1088.96 1253.35 1054.9 1245.45 C 1049.83 1244.28 1041.14 1241.68 1037.01 1238.86 L 1042.24 1238.33 z"/>
<path transform="translate(0,0)" fill="rgb(252,229,175)" d="M 936.693 1036.51 C 950.808 1028.98 963.779 1028.32 979.285 1032.73 C 991.909 1036.31 1014.86 1049.82 1023.64 1059.46 C 1027.99 1063 1030.65 1065.21 1034.49 1069.24 C 1030.35 1068.88 1024.46 1068.54 1020.54 1067.68 C 1005.18 1065.66 942.294 1049.46 933.954 1039.85 L 934.297 1038.02 L 936.693 1036.51 z"/>
<path transform="translate(0,0)" fill="rgb(150,106,66)" d="M 1020.54 1067.68 C 1005.18 1065.66 942.294 1049.46 933.954 1039.85 L 934.297 1038.02 L 936.693 1036.51 C 941.719 1038.66 948.716 1037.77 954.178 1038.94 C 970.526 1042.44 1000.41 1050.52 1014.14 1059.33 L 1020.54 1067.68 z"/>
<path transform="translate(0,0)" fill="url(#Gradient1)" d="M 1037.01 1238.86 L 1035.5 1235.54 C 1035.86 1233.49 1035.69 1232.22 1037.5 1230.89 C 1044.62 1225.69 1053.86 1220.5 1061.4 1216.06 L 1119.29 1182.33 C 1152.56 1162.91 1185.56 1142.59 1219.02 1123.57 C 1223.88 1120.8 1229.87 1118.26 1235.24 1118.07 C 1240.5 1117.88 1280.26 1126.94 1281.91 1128.55 C 1275.2 1132.11 1257.39 1124.85 1249.34 1124.68 C 1245.07 1124.6 1232.1 1122.48 1229.03 1124.04 C 1217.26 1130.02 1204.67 1138.01 1193.41 1144.76 L 1122.74 1186.54 C 1105.25 1196.68 1087.63 1206.62 1069.91 1216.35 C 1061.77 1220.88 1051.57 1226.22 1043.86 1231.53 C 1041.66 1233.05 1042.22 1235.88 1042.24 1238.33 L 1037.01 1238.86 z"/>
<path transform="translate(0,0)" fill="rgb(150,106,66)" d="M 302.884 928.016 L 304.629 928.258 L 304.73 929.594 C 300.02 935.761 282.541 941.807 274.623 945.092 C 240.276 959.341 206.867 975.906 172.764 990.698 C 170.939 991.49 160.666 990.612 158.246 990.442 L 155.996 989.62 C 161.216 980.39 283.918 935.055 302.884 928.016 z"/>
<path transform="translate(0,0)" fill="rgb(150,106,66)" d="M 1024.62 1025.81 C 1036.22 1019.53 1060.56 1032.65 1062.01 1045.61 C 1056.78 1049.89 1056.78 1048.78 1050.51 1046.57 C 1038.54 1044.3 1034.93 1044.26 1024.24 1049.99 C 1017.91 1044.66 1010.7 1040.46 1002.94 1037.6 L 1001.45 1035.7 C 1003.45 1032 1020.09 1026.12 1024.62 1025.81 z"/>
<path transform="translate(0,0)" fill="rgb(240,170,116)" d="M 1002.94 1037.6 C 1013.4 1034.75 1046.15 1035.88 1050.51 1046.57 C 1038.54 1044.3 1034.93 1044.26 1024.24 1049.99 C 1017.91 1044.66 1010.7 1040.46 1002.94 1037.6 z"/>
<path transform="translate(0,0)" fill="rgb(252,229,175)" d="M 1024.62 1025.81 C 1036.22 1019.53 1060.56 1032.65 1062.01 1045.61 C 1055.34 1041.17 1032.76 1031.67 1024.62 1025.81 z"/>
<path transform="translate(0,0)" fill="rgb(251,242,227)" d="M 879.198 882.895 C 880.064 882.823 906.815 889.875 909.631 890.962 C 926.941 897.645 952.22 896.588 968.206 903.241 C 967.925 905.35 965.745 907.081 964.055 908.959 C 938.003 923.209 903.676 897.157 880.029 885.799 C 879.186 885.394 879.351 884.011 879.198 882.895 z"/>
<path transform="translate(0,0)" fill="rgb(150,106,66)" d="M 272.752 1177.86 L 274.51 1178.44 C 277.205 1182.76 278.537 1188.03 280.111 1192.86 C 267.245 1201.34 253.137 1208.14 239.439 1215.16 C 238.304 1215.67 237.88 1215.45 236.673 1215.32 C 234.197 1211.11 233.7 1205.38 232.805 1200.59 C 246.338 1193.42 259.51 1185.55 272.752 1177.86 z"/>
<path transform="translate(0,0)" fill="rgb(252,229,175)" d="M 965.654 1023.71 C 971.826 1012.37 975.221 1008.95 987.098 1004.69 C 996.031 1006.69 1016.23 1013.47 1016.15 1024.52 C 1005.97 1024.35 1000.69 1027.06 991.123 1030.41 C 987.271 1029.04 981.759 1026.9 977.969 1025.84 L 965.654 1023.71 z"/>
<path transform="translate(0,0)" fill="rgb(240,170,116)" d="M 977.969 1025.84 C 994.557 1012.21 1000.85 1023.01 1016.15 1024.52 C 1005.97 1024.35 1000.69 1027.06 991.123 1030.41 C 987.271 1029.04 981.759 1026.9 977.969 1025.84 z"/>
<path transform="translate(0,0)" fill="rgb(150,106,66)" d="M 248.034 1065.1 C 249.529 1066.77 246.908 1082.78 246.663 1086.03 C 241.15 1089.69 216.477 1101.74 210.649 1103.27 C 210.152 1098.17 208.517 1092.55 207.223 1087.53 C 219.989 1079.3 234.448 1071.91 248.034 1065.1 z"/>
<path transform="translate(0,0)" fill="rgb(251,242,227)" d="M 1002.1 900.805 C 1020.61 911.834 959.389 953.932 949.512 959.113 L 946.33 959.144 L 945.319 957.53 C 947.163 952.707 955.105 947.495 959.387 944.38 C 976.352 932.037 989.062 917.057 1002.1 900.805 z"/>
<path transform="translate(0,0)" fill="rgb(150,106,66)" d="M 1073.37 1022.28 C 1056.78 1030.91 1058.71 1025.92 1041.61 1018.17 C 1058.77 1010.88 1086.76 1013.91 1103.44 1021.23 L 1108.13 1023.44 L 1108.65 1025.4 C 1106.54 1028.25 1105.46 1028.02 1101.86 1029.53 C 1099.79 1029.29 1100.27 1029.71 1098.9 1028.73 C 1090.53 1025.85 1082.25 1022.71 1073.37 1022.28 z"/>
<path transform="translate(0,0)" fill="rgb(150,106,66)" d="M 1103.44 1021.23 L 1108.13 1023.44 L 1108.65 1025.4 C 1106.54 1028.25 1105.46 1028.02 1101.86 1029.53 C 1099.79 1029.29 1100.27 1029.71 1098.9 1028.73 C 1097.31 1025.35 1096.52 1025.34 1097.36 1022.77 L 1103.44 1021.23 z"/>
<path transform="translate(0,0)" fill="rgb(150,106,66)" d="M 1130.24 1070.55 C 1126.82 1070.44 1126.25 1070.66 1123.61 1068.76 C 1114.75 1055.84 1136.83 1041.28 1157.31 1062.47 L 1160.55 1065.2 L 1160.31 1066.57 C 1156.89 1067.83 1155.71 1067.79 1152.04 1068.02 C 1148.62 1068.46 1132.51 1070 1130.24 1070.55 z"/>
<path transform="translate(0,0)" fill="rgb(240,170,116)" d="M 1130.24 1070.55 C 1130.19 1068.56 1129 1066.3 1129.27 1064.58 C 1130.53 1056.6 1145.98 1061.28 1150.83 1062.23 L 1152.04 1068.02 C 1148.62 1068.46 1132.51 1070 1130.24 1070.55 z"/>
<path transform="translate(0,0)" fill="rgb(150,106,66)" d="M 1157.31 1062.47 L 1160.55 1065.2 L 1160.31 1066.57 C 1156.89 1067.83 1155.71 1067.79 1152.04 1068.02 L 1150.83 1062.23 C 1153.06 1062.38 1155.07 1062.57 1157.31 1062.47 z"/>
<path transform="translate(0,0)" fill="rgb(240,170,116)" d="M 1112.65 1039.02 C 1109.09 1042.09 1105.26 1046.11 1100.6 1046.21 L 1099.94 1044.68 C 1103.17 1034.71 1115.56 1030.37 1124.75 1028.59 C 1128.32 1030.38 1131.59 1032.39 1135.02 1034.43 C 1139.43 1037.08 1143.31 1042.71 1146.6 1046.87 L 1123.98 1042.46 C 1116.63 1046.78 1112.49 1051.17 1105.17 1054.76 C 1108.06 1050.29 1114.98 1044.37 1115.31 1040.87 C 1114.53 1040.31 1113.46 1039.47 1112.65 1039.02 z"/>
<path transform="translate(0,0)" fill="rgb(150,106,66)" d="M 1112.65 1039.02 C 1109.09 1042.09 1105.26 1046.11 1100.6 1046.21 L 1099.94 1044.68 C 1103.17 1034.71 1115.56 1030.37 1124.75 1028.59 C 1128.32 1030.38 1131.59 1032.39 1135.02 1034.43 L 1132.73 1036.01 C 1128.45 1034.93 1111.96 1030.6 1112.65 1039.02 z"/>
<path transform="translate(0,0)" fill="rgb(150,106,66)" d="M 1058.83 1070.22 C 1057.77 1069.52 1050.86 1069.5 1049.31 1069.69 C 1043.77 1070.36 1035.37 1060.8 1031.15 1056.68 L 1031.77 1055.01 C 1042.59 1048.96 1055.72 1056.31 1063.91 1063.48 C 1069.3 1062.22 1079.04 1063.9 1080.45 1069.79 C 1076.82 1073.17 1062.92 1071.8 1058.83 1070.22 z"/>
<path transform="translate(0,0)" fill="rgb(128,54,46)" d="M 1063.91 1063.48 C 1069.3 1062.22 1079.04 1063.9 1080.45 1069.79 C 1076.82 1073.17 1062.92 1071.8 1058.83 1070.22 C 1061.93 1070.24 1064.37 1070.58 1067.15 1069.33 C 1067.28 1066.69 1065.94 1066.03 1063.91 1063.48 z"/>
<path transform="translate(0,0)" fill="rgb(251,242,227)" d="M 1237.75 1237.83 C 1237.63 1240.43 1236.89 1242.75 1235.49 1244.96 C 1231.85 1250.73 1224.08 1253.63 1217.8 1255.22 C 1191.81 1261.76 1161.98 1260.61 1138.63 1246.72 C 1137.8 1245.91 1137.4 1245.33 1136.82 1244.35 C 1156.76 1252.72 1180.69 1255.59 1202.2 1253.19 C 1215.63 1251.7 1228.97 1248.76 1237.75 1237.83 z"/>
<path transform="translate(0,0)" fill="rgb(251,242,227)" d="M 1379.67 1053.68 C 1386.46 1052.32 1397.14 1048.43 1404.08 1046.05 C 1412.11 1050.57 1435.08 1056.14 1445 1058.83 L 1445 1062.39 C 1423.32 1058.85 1401.53 1055.94 1379.67 1053.68 z"/>
<path transform="translate(0,0)" fill="rgb(251,242,227)" d="M 1378.84 1158.97 C 1380.55 1178.27 1315.93 1181.45 1301.66 1171.95 L 1300.67 1170.87 C 1305.97 1167.87 1352.3 1182.57 1378.84 1158.97 z"/>
<path transform="translate(0,0)" fill="rgb(251,242,227)" d="M 1307.02 1198.09 C 1307.6 1198.79 1307.34 1199.69 1307.34 1200.57 C 1305.7 1203.24 1303.86 1205.28 1301.27 1207.05 C 1285.06 1218.11 1251.03 1221.05 1232.01 1217.48 L 1229.51 1214.93 L 1229.54 1213.87 C 1234.41 1212.56 1239.89 1213.73 1244.86 1214.08 C 1265.21 1215.49 1291.35 1211.76 1307.02 1198.09 z"/>
<path transform="translate(0,0)" fill="rgb(227,145,128)" d="M 907.147 840.613 C 908.356 843.917 917.83 874.943 917.48 875.682 L 914.729 875.209 C 897.515 865.89 898.137 857.21 907.147 840.613 z"/>
<path transform="translate(0,0)" fill="rgb(251,242,227)" d="M 1321.02 1048.38 C 1304.3 1045.86 1284.71 1045.66 1269.25 1042.67 L 1268.29 1041.16 C 1269.43 1038.17 1268.5 1039.38 1271.36 1037.55 C 1279.37 1037.39 1314.86 1043.68 1321.84 1046.22 L 1321.02 1048.38 z"/>
<path transform="translate(0,0)" fill="rgb(251,242,227)" d="M 1002.26 924.832 C 1004.89 940.969 990.593 946.183 978.574 950.8 C 979.086 947.642 998.632 929.008 1002.26 924.832 z"/>
<path transform="translate(0,0)" fill="rgb(150,106,66)" d="M 1066.21 1050.47 C 1073.5 1051.92 1097.11 1064.3 1098.2 1071.09 C 1092.2 1071.41 1076.02 1058.85 1067.03 1055.91 C 1065.45 1053.8 1066.05 1053.92 1066.21 1050.47 z"/>
<path transform="translate(0,0)" fill="rgb(251,242,227)" d="M 593.839 1210.95 C 594.298 1210.93 594.757 1210.92 595.216 1210.92 C 602.416 1210.93 612.678 1212.08 617.764 1217.75 C 620.684 1221 620.653 1223.82 620.295 1227.94 C 618.202 1228.7 616.843 1229.15 614.613 1228.86 C 611.405 1217.07 603.097 1216.83 593.839 1210.95 z"/>
<path transform="translate(0,0)" fill="rgb(251,242,227)" d="M 720.581 778.763 C 721.599 779.633 729.032 798.063 729.553 800.477 L 727.925 801.116 C 722.4 800.573 719.967 801.364 716.802 796.587 C 715.93 792.298 719.206 783.392 720.581 778.763 z"/>
<path transform="translate(0,0)" fill="rgb(128,54,46)" d="M 1117.06 1052.44 C 1118.05 1053.25 1117.78 1053.16 1118.41 1054.41 C 1117.93 1063.68 1115.4 1067.56 1106.03 1068.7 C 1104.87 1066.14 1104.75 1065.72 1104.18 1062.96 C 1106.13 1059.41 1109.65 1059.43 1114.41 1057.85 L 1117.06 1052.44 z"/>
<path transform="translate(0,0)" fill="rgb(252,229,175)" d="M 1069.2 1042.22 C 1078.84 1041.57 1094.63 1046.52 1096.37 1057.17 C 1092.61 1056.52 1078.41 1045.82 1069.2 1042.22 z"/>
<path transform="translate(0,0)" fill="rgb(252,229,175)" d="M 1077.42 1030.13 C 1082.36 1029.42 1087.87 1031.56 1091.61 1034.71 L 1091.54 1036.36 C 1089.28 1037.57 1088.27 1037.09 1085.72 1036.63 C 1077.36 1034.36 1071.95 1034.99 1063.34 1035.16 C 1067.48 1033.45 1073.09 1031.65 1077.42 1030.13 z"/>
<path transform="translate(0,0)" fill="rgb(216,203,175)" d="M 243.718 1094.97 C 244.049 1095.26 244.279 1096.03 244.485 1096.52 C 240.42 1100.34 224.908 1106.49 219.133 1108.82 L 218.543 1108.15 C 222.504 1105.07 238.389 1097.6 243.718 1094.97 z"/>
<path transform="translate(0,0)" fill="rgb(230,219,197)" d="M 882.685 876.326 C 872.934 873.397 862.391 867.939 854.641 861.31 C 862.86 864.574 874.908 870.963 883.425 874.965 L 882.685 876.326 z"/>
<path transform="translate(0,0)" fill="rgb(251,242,227)" d="M 254.454 1214.97 L 255.341 1215.04 C 254.098 1218.53 243.647 1224.68 240.25 1227.22 C 238.917 1226.32 238.937 1226.05 238.378 1224.51 C 240.656 1220.3 250.029 1217.04 254.454 1214.97 z"/>
<path transform="translate(0,0)" fill="rgb(251,242,227)" d="M 1162.64 1009.82 C 1166.13 1009.91 1167.49 1009.9 1170.87 1010.56 C 1172.74 1013.23 1172.16 1012.33 1171.54 1016.62 C 1168.44 1017.12 1168.27 1017.11 1165.15 1016.58 C 1162.53 1013.54 1163.37 1014.71 1162.64 1009.82 z"/>
<path transform="translate(0,0)" fill="rgb(126,122,118)" d="M 383.451 1154.35 L 384.602 1155.82 C 377.79 1159.39 369.701 1163.91 362.303 1165.66 C 368.33 1161.77 376.914 1157.69 383.451 1154.35 z"/>
<path transform="translate(0,0)" fill="rgb(230,219,197)" d="M 1445 1058.83 C 1453.05 1061.04 1461.14 1063.15 1469.25 1065.13 C 1460.55 1064.78 1453.6 1063.67 1445 1062.39 L 1445 1058.83 z"/>
<path transform="translate(0,0)" fill="rgb(251,242,227)" d="M 907.438 879.804 C 914.439 880.728 919.827 881.975 924.672 887.163 C 916.821 885.679 913.182 885.245 907.438 879.804 z"/>
<path transform="translate(0,0)" fill="rgb(216,203,175)" d="M 822.259 869.871 C 828.171 870.795 834.811 876.028 838.924 880.188 C 834.137 879.155 826.511 872.945 822.259 869.871 z"/>
<path transform="translate(0,0)" fill="rgb(126,122,118)" d="M 727.056 470.176 C 726.745 475.447 726.483 478.349 725.506 483.513 L 724.092 469.652 L 727.056 470.176 z"/>
<path transform="translate(0,0)" fill="rgb(216,203,175)" d="M 1321.84 1046.22 C 1324.98 1046.86 1329.02 1047.3 1331.46 1049.11 C 1327.49 1049.53 1324.9 1048.96 1321.02 1048.38 L 1321.84 1046.22 z"/>
<path transform="translate(0,0)" fill="rgb(126,122,118)" d="M 883.425 874.965 C 887.38 876.36 889.701 876.983 893.195 879.444 C 890.99 880.444 885.134 877.422 882.685 876.326 L 883.425 874.965 z"/>
<path transform="translate(0,0)" fill="rgb(180,141,96)" d="M 594.891 256.989 C 599.662 258.169 602.384 259.773 606.735 262.01 C 600.667 261.642 599.28 261.143 594.891 256.989 z"/>
<path transform="translate(0,0)" fill="rgb(109,44,35)" d="M 1571.41 270.769 C 1568.7 266.473 1567.65 264.762 1564.31 260.996 C 1560.23 256.41 1552.92 254.744 1551.31 250.617 C 1556.27 242.179 1582.37 264.876 1579.24 280.909 C 1574.51 279.074 1573.74 275.546 1571.41 270.769 z"/>
</svg>